<svg width="80" height="80" viewBox="0 0 80 80" fill="none" xmlns="http://www.w3.org/2000/svg">
<circle cx="40" cy="40" r="39" stroke="#09B9B9" stroke-width="2"/>
<path d="M52.4889 46.3475L50.7086 44.605L52.4888 42.8627C53.0266 42.3364 53.0266 41.483 52.4888 40.9567C51.9511 40.4304 51.0792 40.4304 50.5415 40.9567L48.7613 42.6992L46.981 40.9567C46.4433 40.4304 45.5714 40.4304 45.0337 40.9567C44.4959 41.483 44.4959 42.3363 45.0337 42.8626L46.814 44.605L45.0338 46.3474C44.496 46.8737 44.496 47.7269 45.0338 48.2532C45.5714 48.7794 46.4433 48.7795 46.9811 48.2532L48.7613 46.5109L50.5416 48.2533C51.0792 48.7795 51.9511 48.7796 52.4889 48.2533C53.0266 47.727 53.0266 46.8738 52.4889 46.3475Z" fill="#035385"/>
<path d="M35.9654 35.5662L34.1851 33.8238L35.9653 32.0814C36.5031 31.5551 36.5031 30.7019 35.9653 30.1756C35.4277 29.6493 34.5558 29.6493 34.0181 30.1756L32.2378 31.9179L30.4575 30.1755C29.9199 29.6492 29.048 29.6492 28.5102 30.1755C27.9725 30.7018 27.9725 31.555 28.5102 32.0813L30.2906 33.8238L28.5103 35.5661C27.9725 36.0924 27.9725 36.9458 28.5103 37.4721C29.048 37.9983 29.9199 37.9984 30.4576 37.4721L32.2378 35.7296L34.0181 37.4721C34.5558 37.9983 35.4277 37.9984 35.9654 37.4721C36.5032 36.9458 36.5032 36.0925 35.9654 35.5662Z" fill="#035385"/>
<path d="M55.2431 30.1757L52.4892 27.4804C52.4866 27.4778 52.4837 27.4758 52.4811 27.4732C51.938 26.9501 51.0699 26.9639 50.5419 27.4804L47.788 30.1757C47.2503 30.7021 47.2503 31.5553 47.788 32.0816C48.3257 32.6079 49.1976 32.6079 49.7353 32.0816L50.1387 31.6868V35.1716H40.5C39.7396 35.1716 39.123 35.775 39.123 36.5193V43.2575H36.1323C35.5639 41.689 34.0334 40.5622 32.2383 40.5622C29.9605 40.5622 28.1074 42.3759 28.1074 44.6052C28.1074 46.8345 29.9605 48.6482 32.2383 48.6482C34.0334 48.6482 35.5639 47.5214 36.1323 45.9528H40.5C41.2604 45.9528 41.877 45.3495 41.877 44.6052V37.8669H51.5156C52.2761 37.8669 52.8926 37.2635 52.8926 36.5193V31.6868L53.2959 32.0816C53.5647 32.3447 53.9171 32.4763 54.2695 32.4763C54.6219 32.4763 54.9743 32.3447 55.2431 32.0816C55.7809 31.5553 55.7809 30.7021 55.2431 30.1757ZM32.2383 45.9528C31.479 45.9528 30.8613 45.3483 30.8613 44.6052C30.8613 43.8621 31.479 43.2575 32.2383 43.2575C32.9975 43.2575 33.6152 43.8621 33.6152 44.6052C33.6152 45.3483 32.9975 45.9528 32.2383 45.9528Z" fill="#035385"/>
<path d="M59.8691 19H21.1309C18.8531 19 17 20.8137 17 23.043C17 24.7999 18.1512 26.2978 19.7539 26.8541V49.9961C19.7539 52.2254 21.607 54.0391 23.8848 54.0391H39.123V57.1459C37.5204 57.7022 36.3691 59.2001 36.3691 60.957C36.3691 63.1863 38.2222 65 40.5 65C42.7778 65 44.6309 63.1863 44.6309 60.957C44.6309 59.2001 43.4796 57.7022 41.877 57.1459V54.0391H57.1152C59.393 54.0391 61.2461 52.2254 61.2461 49.9961V26.8541C62.8488 26.2978 64 24.7999 64 23.043C64 20.8137 62.1469 19 59.8691 19ZM40.5 62.3047C39.7407 62.3047 39.123 61.7001 39.123 60.957C39.123 60.2139 39.7407 59.6094 40.5 59.6094C41.2593 59.6094 41.877 60.2139 41.877 60.957C41.877 61.7001 41.2593 62.3047 40.5 62.3047ZM58.4922 49.9961C58.4922 50.7392 57.8745 51.3438 57.1152 51.3438H23.8848C23.1255 51.3438 22.5078 50.7392 22.5078 49.9961V27.0859H58.4922V49.9961ZM59.8691 24.3906H21.1309C20.3716 24.3906 19.7539 23.7861 19.7539 23.043C19.7539 22.2999 20.3716 21.6953 21.1309 21.6953H59.8691C60.6284 21.6953 61.2461 22.2999 61.2461 23.043C61.2461 23.7861 60.6284 24.3906 59.8691 24.3906Z" fill="#035385"/>
</svg>
