<svg width="52" height="52" viewBox="0 0 52 52" fill="none" xmlns="http://www.w3.org/2000/svg">
<g clip-path="url(#clip0)">
<path d="M37.6902 6.0902H32.5392V2.03145C32.5392 0.91132 31.628 0 30.5077 0H21.4921C20.372 0 19.4607 0.91132 19.4607 2.03145V6.0902H14.3096C12.3495 6.0902 10.7546 7.68493 10.7546 9.64519V45.398C10.7546 49.0384 13.7163 52.0001 17.3567 52.0001H34.643C38.2834 52.0001 41.245 49.0384 41.245 45.398C41.245 44.7838 41.245 11.6188 41.245 9.64519C41.2451 7.68493 39.6504 6.0902 37.6902 6.0902ZM22.5079 3.04708H29.492V6.05181H22.5079V3.04708ZM13.8019 9.64509C13.8019 9.36508 14.0297 9.13727 14.3097 9.13727H37.6901C37.9701 9.13727 38.1979 9.36508 38.1979 9.64509V14.1273H13.8019V9.64509ZM38.198 45.3979C38.198 47.3581 36.6033 48.9529 34.6431 48.9529H17.3569C15.3968 48.9529 13.8019 47.3582 13.8019 45.3979V17.1745H38.198V45.3979Z" fill="white"/>
<path d="M21.1788 33.6509H27.8489L21.143 42.9765C20.6519 43.6597 20.8074 44.6116 21.4906 45.1029C22.1742 45.5945 23.1263 45.4379 23.617 44.7554L32.058 33.0168C32.7813 32.0109 32.0606 30.6038 30.8209 30.6038H24.1874L29.6499 23.1636C30.148 22.4853 30.0017 21.5317 29.3235 21.0338C28.6456 20.5359 27.6918 20.682 27.1938 21.3602L19.9506 31.2257C19.2144 32.2284 19.9306 33.6509 21.1788 33.6509Z" fill="white"/>
</g>
<defs>
<clipPath id="clip0">
<rect width="52" height="52" fill="white"/>
</clipPath>
</defs>
</svg>
