<svg width="52" height="54" viewBox="0 0 52 54" fill="none" xmlns="http://www.w3.org/2000/svg">
<path d="M26 32.9063C24.656 32.9063 23.5625 31.7707 23.5625 30.375C23.5625 28.9793 24.656 27.8438 26 27.8438C27.344 27.8438 28.4375 28.9793 28.4375 30.375C28.4375 31.7707 27.344 32.9063 26 32.9063Z" fill="white"/>
<path d="M44.3724 7.92102C39.4537 2.81296 32.9289 0 25.9999 0C19.055 0 12.5258 2.80853 7.61505 7.90805C2.7043 13.0076 0 19.7879 0 27C0 33.9678 2.56344 40.5715 7.11973 45.5625H4.875C3.97749 45.5625 3.25 46.3181 3.25 47.25C3.25 48.1819 3.97749 48.9375 4.875 48.9375H11.375C12.2725 48.9375 13 48.1819 13 47.25V40.5C13 39.5681 12.2725 38.8125 11.375 38.8125C10.4775 38.8125 9.75 39.5681 9.75 40.5V43.5338C5.59427 39.1337 3.25 33.233 3.25 27C3.25 13.9731 13.4555 3.375 25.9999 3.375C32.0607 3.375 37.7695 5.83696 42.0743 10.3075C46.3791 14.778 48.75 20.7062 48.75 27.0001C48.75 39.3133 39.8572 49.4286 28.0648 50.5291C27.9194 50.5418 27.8179 50.4778 27.7579 50.421C27.6972 50.3634 27.6249 50.2623 27.6249 50.1079V40.3586C32.2302 39.5528 35.7499 35.383 35.7499 30.375V23.625C35.7499 22.6931 35.0224 21.9375 34.1249 21.9375H32.4999V16.875C32.4999 15.9431 31.7724 15.1875 30.8749 15.1875C29.9774 15.1875 29.2499 15.9431 29.2499 16.875V21.9375H22.7499V16.875C22.7499 15.9431 22.0224 15.1875 21.1249 15.1875C20.2274 15.1875 19.4999 15.9431 19.4999 16.875V21.9375H17.8749C16.9774 21.9375 16.2499 22.6931 16.2499 23.625V30.375C16.2499 35.3831 19.7695 39.5528 24.3749 40.3586V50.1079C24.3749 51.1719 24.8087 52.194 25.5651 52.912C26.24 53.5527 27.1241 53.9056 28.0311 53.9056C28.1391 53.9056 28.2473 53.9006 28.3555 53.8905C34.7942 53.2896 40.7581 50.226 45.1489 45.2641C49.567 40.2716 52 33.7852 52 27.0001C52 19.8046 49.2911 13.0289 44.3724 7.92102ZM19.5 30.375V25.3125H32.5V30.375C32.5 34.097 29.5841 37.125 26 37.125C22.4159 37.125 19.5 34.097 19.5 30.375Z" fill="white"/>
</svg>
