<svg width="47" height="48" viewBox="0 0 47 48" fill="none" xmlns="http://www.w3.org/2000/svg">
<path d="M35.9844 48H11.0156C4.94161 48 0 42.9533 0 36.75V11.25C0 5.04675 4.94161 0 11.0156 0H35.9844C42.0584 0 47 5.04675 47 11.25V36.75C47 42.9533 42.0584 48 35.9844 48ZM11.0156 3.75C6.96628 3.75 3.67188 7.1145 3.67188 11.25V36.75C3.67188 40.8855 6.96628 44.25 11.0156 44.25H35.9844C40.0337 44.25 43.3281 40.8855 43.3281 36.75V11.25C43.3281 7.1145 40.0337 3.75 35.9844 3.75H11.0156ZM39.8398 35.5312C39.8398 34.4957 39.0179 33.6562 38.0039 33.6562H8.99609C7.98211 33.6562 7.16016 34.4957 7.16016 35.5312C7.16016 36.5668 7.98211 37.4062 8.99609 37.4062H38.0039C39.0179 37.4062 39.8398 36.5668 39.8398 35.5312ZM20.4779 27.6605C19.7576 27.6605 19.0369 27.469 18.3766 27.0853C17.0437 26.3108 16.248 24.9171 16.248 23.3572V16.0179C16.248 14.4579 17.0437 13.0642 18.3766 12.2897C19.7209 11.5086 21.3167 11.524 22.6458 12.3306L28.6922 16.0002C29.982 16.7829 30.752 18.1613 30.752 19.6875C30.752 21.2137 29.982 22.5921 28.6922 23.3749L22.6459 27.0445C21.9696 27.4549 21.224 27.6605 20.4779 27.6605ZM20.77 23.8207L26.8163 20.151C27.0344 20.0187 27.0801 19.8259 27.0801 19.6874C27.0801 19.5489 27.0344 19.3561 26.8164 19.2238L20.77 15.5542C20.5204 15.4026 20.3011 15.4858 20.1926 15.5488C20.0683 15.6211 19.9199 15.7611 19.9199 16.0177V23.3569C19.9199 23.6135 20.0682 23.7534 20.1926 23.8257C20.301 23.889 20.77 23.8207 20.77 23.8207Z" fill="white"/>
</svg>
