<svg width="24" height="24" viewBox="0 0 24 24" fill="none" xmlns="http://www.w3.org/2000/svg">
<path d="M19.202 4.82512C17.5225 2.39438 14.8607 1 11.8997 1C8.93868 1 6.27689 2.39438 4.59737 4.82512C2.9261 7.24357 2.5402 10.3054 3.56303 13.0105C3.83661 13.7492 4.2715 14.4669 4.85252 15.1395L11.3141 22.7292C11.4602 22.901 11.6743 23 11.8997 23C12.1251 23 12.3392 22.901 12.4853 22.7292L18.9451 15.1415C19.5287 14.4651 19.963 13.7482 20.2343 13.0154C21.2592 10.3054 20.8733 7.24357 19.202 4.82512ZM18.7938 12.4767C18.5846 13.042 18.243 13.601 17.7792 14.1387L17.7756 14.1428L11.8997 21.0444L6.0202 14.1385C5.55661 13.6013 5.21505 13.0423 5.00377 12.4715C4.15789 10.2344 4.47891 7.70282 5.86276 5.70001C7.25095 3.69079 9.45147 2.53845 11.8997 2.53845C14.3479 2.53845 16.5481 3.69075 17.9364 5.70001C19.3205 7.70282 19.6418 10.2344 18.7938 12.4767Z" fill="#035385"/>
<path d="M11.8995 5.56445C9.52436 5.56445 7.5918 7.49676 7.5918 9.87216C7.5918 12.2476 9.5241 14.1799 11.8995 14.1799C14.2749 14.1799 16.2072 12.2476 16.2072 9.87216C16.2072 7.49702 14.2746 5.56445 11.8995 5.56445ZM11.8995 12.6414C10.3726 12.6414 9.13025 11.3991 9.13025 9.87211C9.13025 8.34518 10.3726 7.10286 11.8995 7.10286C13.4264 7.10286 14.6688 8.34518 14.6688 9.87211C14.6688 11.3991 13.4264 12.6414 11.8995 12.6414Z" fill="#035385"/>
</svg>
