<svg width="80" height="80" viewBox="0 0 80 80" fill="none" xmlns="http://www.w3.org/2000/svg">
<circle cx="40" cy="40" r="39" stroke="#09B9B9" stroke-width="2"/>
<g clip-path="url(#clip0)">
<path d="M60.0625 21.875H24.8125C24.0334 21.875 23.2863 22.1845 22.7354 22.7354C22.1845 23.2863 21.875 24.0334 21.875 24.8125V27.75H18.9375C18.1584 27.75 17.4113 28.0595 16.8604 28.6104C16.3095 29.1613 16 29.9084 16 30.6875V54.1875C16 54.9666 16.3095 55.7137 16.8604 56.2646C17.4113 56.8155 18.1584 57.125 18.9375 57.125H54.1875C54.9666 57.125 55.7137 56.8155 56.2646 56.2646C56.8155 55.7137 57.125 54.9666 57.125 54.1875V51.25H60.0625C60.8416 51.25 61.5887 50.9405 62.1396 50.3896C62.6905 49.8387 63 49.0916 63 48.3125V24.8125C63 24.0334 62.6905 23.2863 62.1396 22.7354C61.5887 22.1845 60.8416 21.875 60.0625 21.875ZM54.1875 54.1875H18.9375V30.6875H54.1875V54.1875ZM60.0625 48.3125H57.125V30.6875C57.125 29.9084 56.8155 29.1613 56.2646 28.6104C55.7137 28.0595 54.9666 27.75 54.1875 27.75H24.8125V24.8125H60.0625V48.3125Z" fill="#035385"/>
<path d="M36.5625 51.25C38.3054 51.25 40.0093 50.7332 41.4585 49.7648C42.9077 48.7965 44.0372 47.4202 44.7042 45.8099C45.3712 44.1996 45.5457 42.4277 45.2057 40.7183C44.8656 39.0088 44.0263 37.4386 42.7939 36.2061C41.5614 34.9737 39.9912 34.1344 38.2817 33.7943C36.5723 33.4543 34.8004 33.6288 33.1901 34.2958C31.5798 34.9628 30.2035 36.0923 29.2352 37.5415C28.2668 38.9907 27.75 40.6946 27.75 42.4375C27.75 44.7747 28.6785 47.0162 30.3311 48.6689C31.9838 50.3215 34.2253 51.25 36.5625 51.25ZM36.5625 36.5625C37.7245 36.5625 38.8603 36.9071 39.8265 37.5526C40.7926 38.1982 41.5456 39.1157 41.9903 40.1892C42.435 41.2628 42.5513 42.444 42.3246 43.5837C42.0979 44.7233 41.5384 45.7701 40.7168 46.5918C39.8951 47.4134 38.8483 47.9729 37.7087 48.1996C36.569 48.4263 35.3878 48.31 34.3142 47.8653C33.2407 47.4206 32.3232 46.6676 31.6776 45.7015C31.0321 44.7353 30.6875 43.5995 30.6875 42.4375C30.6875 40.8794 31.3065 39.385 32.4082 38.2833C33.51 37.1815 35.0044 36.5625 36.5625 36.5625Z" fill="#035385"/>
<path d="M51.25 40.9688H48.3125V43.9062H51.25V40.9688Z" fill="#035385"/>
<path d="M24.8125 40.9688H21.875V43.9062H24.8125V40.9688Z" fill="#035385"/>
</g>
<defs>
<clipPath id="clip0">
<rect width="47" height="47" fill="white" transform="translate(16 16)"/>
</clipPath>
</defs>
</svg>
