<svg width="80" height="80" viewBox="0 0 80 80" fill="none" xmlns="http://www.w3.org/2000/svg">
<circle cx="40" cy="40" r="39" stroke="#09B9B9" stroke-width="2"/>
<path d="M43.5312 27.25H27.4062C26.6645 27.25 26.0625 27.866 26.0625 28.625C26.0625 29.384 26.6645 30 27.4062 30H43.5312C44.273 30 44.875 29.384 44.875 28.625C44.875 27.866 44.273 27.25 43.5312 27.25Z" fill="#035385"/>
<path d="M38.1562 32.75H27.4062C26.6645 32.75 26.0625 33.366 26.0625 34.125C26.0625 34.884 26.6645 35.5 27.4062 35.5H38.1562C38.898 35.5 39.5 34.884 39.5 34.125C39.5 33.366 38.898 32.75 38.1562 32.75Z" fill="#035385"/>
<path d="M47.5625 19H23.375C20.4107 19 18 21.4667 18 24.5V52C18 52.5335 18.301 53.0202 18.774 53.2458C18.9541 53.331 19.1502 53.375 19.3438 53.375C19.6528 53.375 19.9592 53.265 20.2037 53.056L27.8927 46.5H47.5625C50.5268 46.5 52.9375 44.0333 52.9375 41V24.5C52.9375 21.4667 50.5268 19 47.5625 19ZM50.25 41C50.25 42.5152 49.046 43.75 47.5625 43.75H27.4062C27.0918 43.75 26.7881 43.8628 26.5463 44.069L20.6875 49.0657V24.5C20.6875 22.9848 21.8915 21.75 23.375 21.75H47.5625C49.046 21.75 50.25 22.9848 50.25 24.5V41Z" fill="#035385"/>
<path d="M55.625 30C54.8832 30 54.2812 30.616 54.2812 31.375C54.2812 32.134 54.8832 32.75 55.625 32.75C57.1085 32.75 58.3125 33.9848 58.3125 35.5V58.7622L53.776 55.0498C53.5395 54.8573 53.2412 54.75 52.9375 54.75H34.125C32.6415 54.75 31.4375 53.5152 31.4375 52V50.625C31.4375 49.866 30.8355 49.25 30.0938 49.25C29.352 49.25 28.75 49.866 28.75 50.625V52C28.75 55.0333 31.1607 57.5 34.125 57.5H52.4645L58.8151 62.7002C59.0596 62.8983 59.3579 63 59.6562 63C59.8524 63 60.0513 62.956 60.2394 62.8652C60.7044 62.6343 61 62.153 61 61.625V35.5C61 32.4667 58.5893 30 55.625 30Z" fill="#035385"/>
</svg>
