<svg width="80" height="80" viewBox="0 0 80 80" fill="none" xmlns="http://www.w3.org/2000/svg">
<circle cx="40" cy="40" r="39" stroke="#09B9B9" stroke-width="2"/>
<path d="M50.5279 42.0089C51.2938 41.6261 51.7695 40.8562 51.7695 40V37.7539H53.1724C55.619 37.7539 57.6094 35.7495 57.6094 33.2858V21.4681C57.6094 19.0044 55.619 17 53.1724 17H26.9175C24.4709 17 22.4805 19.0044 22.4805 21.4681V33.2857C22.4805 35.7495 24.4709 37.7539 26.9175 37.7539H28.3203V40C28.3203 40.8562 28.796 41.6261 29.562 42.0089C29.8824 42.1692 30.2266 42.2482 30.5687 42.2482C31.0442 42.2481 31.5158 42.0956 31.9141 41.7969L37.3047 37.7539H42.7852L48.1758 41.7969C48.8608 42.3107 49.762 42.3919 50.5279 42.0089ZM29.668 35.0586H26.9175C25.9571 35.0586 25.1758 34.2633 25.1758 33.2858V21.4681C25.1758 20.4906 25.9571 19.6953 26.9175 19.6953H53.1724C54.1328 19.6953 54.9141 20.4906 54.9141 21.4681V33.2857C54.9141 34.2633 54.1328 35.0585 53.1724 35.0585H50.4219C49.6776 35.0585 49.0742 35.6619 49.0742 36.4062V39.1015L44.043 35.328C43.8097 35.1531 43.526 35.0585 43.2344 35.0585H36.8555C36.5638 35.0585 36.2801 35.1531 36.0469 35.328L31.0156 39.1015V36.4062C31.0156 35.662 30.4122 35.0586 29.668 35.0586Z" fill="#035385"/>
<path d="M35.9201 57.446C35.6157 54.8731 33.8847 52.7817 31.5759 51.9223C32.0724 51.1519 32.3619 50.2361 32.3619 49.2534C32.3619 46.5287 30.1452 44.312 27.4205 44.312C24.6958 44.312 22.4791 46.5287 22.4791 49.2534C22.4791 50.2215 22.76 51.1246 23.2429 51.8878C20.8864 52.7245 19.1117 54.8378 18.8031 57.4461L18.3243 61.4935C18.2791 61.8759 18.3995 62.2593 18.6553 62.5471C18.911 62.835 19.2776 62.9994 19.6626 62.9994H35.0606C35.4456 62.9994 35.8123 62.8347 36.068 62.547C36.3237 62.2592 36.4441 61.8757 36.3989 61.4934L35.9201 57.446ZM27.4205 47.0072C28.659 47.0072 29.6666 48.0148 29.6666 49.2533C29.6666 50.4918 28.659 51.4994 27.4205 51.4994C26.182 51.4994 25.1744 50.4918 25.1744 49.2533C25.1744 48.0148 26.182 47.0072 27.4205 47.0072ZM21.1791 60.3041L21.4799 57.7627C21.7205 55.7286 23.4465 54.1947 25.4948 54.1947H29.2285C31.2768 54.1947 33.0029 55.7286 33.2435 57.7627L33.5442 60.3041H21.1791Z" fill="#035385"/>
<path d="M61.6756 61.4939L61.1967 57.4465C60.8923 54.8736 59.1613 52.7822 56.8525 51.9228C57.349 51.1524 57.6385 50.2366 57.6385 49.2539C57.6385 46.5292 55.4218 44.3125 52.6971 44.3125C49.9724 44.3125 47.7557 46.5292 47.7557 49.2539C47.7557 50.222 48.0366 51.1251 48.5196 51.8883C46.163 52.725 44.3883 54.8383 44.0797 57.4466L43.6009 61.494C43.5557 61.8764 43.6761 62.2598 43.9319 62.5476C44.1877 62.8355 44.5541 63 44.9392 63H60.3373C60.7222 63 61.0889 62.8353 61.3446 62.5475C61.6003 62.2598 61.7208 61.8763 61.6756 61.4939ZM52.6971 47.0078C53.9356 47.0078 54.9432 48.0154 54.9432 49.2539C54.9432 50.4924 53.9356 51.5 52.6971 51.5C51.4586 51.5 50.451 50.4924 50.451 49.2539C50.451 48.0154 51.4585 47.0078 52.6971 47.0078ZM46.4557 60.3047L46.7564 57.7633C46.9971 55.7292 48.7231 54.1953 50.7713 54.1953H54.505C56.5533 54.1953 58.2794 55.7292 58.52 57.7633L58.8207 60.3047H46.4557Z" fill="#035385"/>
<path d="M30.207 26.019H42.9648C43.7091 26.019 44.3125 25.4157 44.3125 24.6714C44.3125 23.9271 43.7091 23.3237 42.9648 23.3237H30.207C29.4628 23.3237 28.8594 23.9271 28.8594 24.6714C28.8594 25.4157 29.4628 26.019 30.207 26.019Z" fill="#035385"/>
<path d="M51.2305 30.062C51.2305 29.3177 50.6271 28.7144 49.8828 28.7144H30.207C29.4628 28.7144 28.8594 29.3177 28.8594 30.062C28.8594 30.8063 29.4628 31.4097 30.207 31.4097H49.8828C50.6271 31.4097 51.2305 30.8063 51.2305 30.062Z" fill="#035385"/>
</svg>
