<svg width="47" height="48" viewBox="0 0 47 48" fill="none" xmlns="http://www.w3.org/2000/svg">
<path d="M27.9062 9H10.2812C9.4705 9 8.8125 9.672 8.8125 10.5C8.8125 11.328 9.4705 12 10.2812 12H27.9062C28.717 12 29.375 11.328 29.375 10.5C29.375 9.672 28.717 9 27.9062 9Z" fill="white"/>
<path d="M22.0312 15H10.2812C9.4705 15 8.8125 15.672 8.8125 16.5C8.8125 17.328 9.4705 18 10.2812 18H22.0312C22.842 18 23.5 17.328 23.5 16.5C23.5 15.672 22.842 15 22.0312 15Z" fill="white"/>
<path d="M32.3125 0H5.875C2.63494 0 0 2.691 0 6V36C0 36.582 0.329 37.113 0.846 37.359C1.04281 37.452 1.25725 37.5 1.46875 37.5C1.80656 37.5 2.14144 37.38 2.40875 37.152L10.8129 30H32.3125C35.5526 30 38.1875 27.309 38.1875 24V6C38.1875 2.691 35.5526 0 32.3125 0ZM35.25 24C35.25 25.653 33.934 27 32.3125 27H10.2812C9.93756 27 9.60563 27.123 9.34125 27.348L2.9375 32.799V6C2.9375 4.347 4.2535 3 5.875 3H32.3125C33.934 3 35.25 4.347 35.25 6V24Z" fill="white"/>
<path d="M41.125 12C40.3143 12 39.6562 12.672 39.6562 13.5C39.6562 14.328 40.3143 15 41.125 15C42.7465 15 44.0625 16.347 44.0625 18V43.377L39.104 39.327C38.8455 39.117 38.5194 39 38.1875 39H17.625C16.0035 39 14.6875 37.653 14.6875 36V34.5C14.6875 33.672 14.0295 33 13.2188 33C12.408 33 11.75 33.672 11.75 34.5V36C11.75 39.309 14.3849 42 17.625 42H37.6705L44.6118 47.673C44.8791 47.889 45.2052 48 45.5312 48C45.7457 48 45.9631 47.952 46.1687 47.853C46.6769 47.601 47 47.076 47 46.5V18C47 14.691 44.3651 12 41.125 12Z" fill="white"/>
</svg>
