<svg width="24" height="24" viewBox="0 0 24 24" fill="none" xmlns="http://www.w3.org/2000/svg">
<path d="M18.7252 5H5.27485C4.02052 5 3 6.02052 3 7.27485V15.9101C3 17.1644 4.02052 18.1849 5.27485 18.1849H18.7252C19.9795 18.1849 21 17.1644 21 15.9101V7.27485C21 6.02052 19.9795 5 18.7252 5ZM18.3698 6.46739L12 11.3879L5.63025 6.46739H18.3698ZM18.7252 16.7176H5.27485C4.82964 16.7176 4.46739 16.3554 4.46739 15.9102V7.42335L11.5515 12.8957C11.6835 12.9978 11.8418 13.0487 12 13.0487C12.1582 13.0487 12.3165 12.9978 12.4485 12.8957L19.5326 7.42335V15.9101C19.5326 16.3554 19.1704 16.7176 18.7252 16.7176Z" fill="#035385"/>
</svg>
