<svg width="56" height="56" viewBox="0 0 56 56" fill="none" xmlns="http://www.w3.org/2000/svg">
<g clip-path="url(#clip0)">
<path d="M55.9968 18.7997C55.742 6.07418 40.2133 -3.30419 28 7.37519C15.7949 -3.2973 0.258071 6.06795 0.00316483 18.7997C-0.0902644 23.4643 1.88652 27.9553 5.71952 31.7875C5.72992 31.7984 13.5 39.5258 26.8423 52.7956C27.4825 53.4324 28.5172 53.4325 29.1577 52.7956L50.2805 31.7875C54.1135 27.9554 56.0901 23.4643 55.9968 18.7997ZM28 49.3175L9.97756 31.3928H15.7439C16.3205 31.3928 16.8548 31.0904 17.1514 30.5962L18.4112 28.497L23.1133 35.8841C23.8049 36.9708 25.4286 36.8726 25.9815 35.7056L32.4708 22.0096L37.0598 30.5299C37.3461 31.0614 37.9011 31.393 38.505 31.393H46.0222L28 49.3175ZM49.1975 28.1108H39.4855L33.8224 17.5961C33.1875 16.4174 31.4707 16.4539 30.8938 17.6715L24.2872 31.615L19.755 24.4948C19.0942 23.4562 17.5847 23.4953 16.9628 24.5315L14.8147 28.1109H6.80282C4.43186 25.26 3.22078 22.0939 3.28533 18.8655C3.49024 8.63298 16.5337 0.479257 26.8393 10.7823C27.4798 11.4226 28.5198 11.4232 29.1606 10.7823C42.3187 -2.37285 60.4082 14.633 49.1975 28.1108Z" fill="white"/>
</g>
<defs>
<clipPath id="clip0">
<rect width="56" height="56" fill="white"/>
</clipPath>
</defs>
</svg>
