<svg width="52" height="53" viewBox="0 0 52 53" fill="none" xmlns="http://www.w3.org/2000/svg">
<path d="M26 0C11.6297 0 0 11.8522 0 26.5C0 41.1467 11.6286 53 26 53C40.3703 53 52 41.1478 52 26.5C52 11.8533 40.3714 0 26 0ZM26 3.10547C29.0286 3.10547 31.9673 3.70027 34.6888 4.83387L33.3721 6.90449C32.1206 8.87294 31.8836 11.3483 32.7383 13.526L32.9618 14.0956C34.0706 16.9213 32.06 20.0356 29.0394 20.068L24.0564 20.1215C20.6587 20.1579 18.0194 23.1649 18.3604 26.6102L19.243 35.5322C19.2872 35.9783 19.107 36.41 18.761 36.6871C18.1901 37.1441 17.3593 37.0278 16.9329 36.4222L4.38384 18.596C7.49399 9.74134 15.8626 3.10547 26 3.10547ZM32.0913 49.0657L31.0614 45.864C30.143 43.0093 32.2361 40.0711 35.1792 40.0711H35.6663C37.3972 40.0711 39.0712 39.5504 40.5072 38.5655L42.7652 37.0167C44.0249 36.1525 45.52 35.7974 46.995 35.986C44.2916 42.1959 38.8774 47.1745 32.0913 49.0657ZM41.0642 34.4402L38.8061 35.989C37.8748 36.6278 36.7891 36.9655 35.6664 36.9655H35.1793C30.163 36.9655 26.6037 41.9743 28.1663 46.8315L29.0843 49.6847C28.0699 49.8228 27.0405 49.8945 26 49.8945C13.3138 49.8945 3.04688 39.4314 3.04688 26.5C3.04688 25.1443 3.15961 23.8062 3.3799 22.4967L14.4574 38.2326C15.9003 40.2821 18.7135 40.6746 20.6436 39.129C21.8143 38.1914 22.4241 36.7302 22.2747 35.2205L21.392 26.2987C21.2305 24.6653 22.4741 23.2442 24.0887 23.2268L29.0717 23.1733C34.2278 23.118 37.6899 17.7814 35.7909 12.9425L35.5674 12.3728C35.0795 11.1298 35.2148 9.71701 35.9293 8.59356L37.4444 6.21083C44.2393 10.2075 48.9531 17.7057 48.9531 26.5C48.9531 28.7369 48.6456 30.9253 48.0539 33.0167C45.6381 32.5188 43.1372 33.0182 41.0642 34.4402Z" fill="white"/>
<path d="M39.524 26.7968L38.5044 25.6146C37.5047 24.4557 35.8984 24.0856 34.5068 24.6939L28.2428 27.4324C25.7754 28.5109 25.4055 31.9267 27.4367 33.5848C28.064 34.0967 28.8284 34.3666 29.6125 34.3666C29.8679 34.3665 30.1257 34.3378 30.3813 34.2796L37.665 32.6175C40.2518 32.0272 41.2763 28.8283 39.524 26.7968ZM36.9991 29.587L29.7155 31.249C29.5351 31.2903 29.4034 31.2115 29.3412 31.1607C29.1021 30.9655 29.0921 30.44 29.4437 30.2863C36.2027 27.3315 35.7531 27.511 35.883 27.511C36.0078 27.511 36.1297 27.5648 36.2159 27.6648L37.2355 28.847C37.4587 29.1059 37.3297 29.5115 36.9991 29.587Z" fill="white"/>
</svg>
