<svg width="80" height="80" viewBox="0 0 80 80" fill="none" xmlns="http://www.w3.org/2000/svg">
<circle cx="40" cy="40" r="39" stroke="#09B9B9" stroke-width="2"/>
<path d="M57.843 29.3225L50.9157 40.6765L47.153 32.9675C46.5235 31.6776 44.7266 31.6776 44.097 32.9675L40.032 41.2958L34.8746 36.0126C34.2074 35.3292 33.1258 35.3292 32.4587 36.0126L26.8333 41.7751V19.75C26.8333 18.7835 26.0685 18 25.125 18C24.1815 18 23.4167 18.7835 23.4167 19.75V46V53H21.7083C20.7648 53 20 53.7835 20 54.75C20 55.7165 20.7648 56.5 21.7083 56.5H23.4167V58.25C23.4167 59.2165 24.1815 60 25.125 60C26.0685 60 26.8333 59.2165 26.8333 58.25V56.5H59.2917C60.2352 56.5 61 55.7165 61 54.75V30.25C61 28.4918 58.7526 27.8315 57.843 29.3225ZM26.8333 53V46.7249L33.6667 39.7249L39.292 45.4874C40.1165 46.332 41.5065 46.1009 42.0279 45.0325L45.6249 37.6631L49.2219 45.0325C49.8185 46.2549 51.4915 46.3363 52.1986 45.1774L57.5833 36.3519V53H26.8333Z" fill="#035385"/>
</svg>
