<svg width="80" height="80" viewBox="0 0 80 80" fill="none" xmlns="http://www.w3.org/2000/svg">
<circle cx="40" cy="40" r="39" stroke="#09B9B9" stroke-width="2"/>
<g clip-path="url(#clip0)">
<path d="M26.3334 44.046L28.2245 44.6845C31.8881 45.9214 32.0058 51.0165 28.3226 52.3664C28.3226 53.335 27.5834 53.9477 26.7742 53.9477C25.9731 53.9477 25.2258 53.3442 25.2258 52.3664C23.6439 51.7866 22.5145 50.2917 22.5145 48.5428C22.5145 47.7054 23.2077 47.0267 24.0629 47.0267C24.9181 47.0267 25.6113 47.7054 25.6113 48.5428C25.6113 49.1212 26.0919 49.5919 26.6826 49.5919H26.8656C28.0745 49.5919 28.3492 47.934 27.2149 47.551L25.3238 46.9125C21.6603 45.6757 21.5426 40.5806 25.2258 39.2306C25.2258 38.262 25.965 37.6493 26.7742 37.6493C27.5753 37.6493 28.3226 38.2528 28.3226 39.2306C29.9045 39.8105 31.0339 41.3054 31.0339 43.0542C31.0339 43.8916 30.3407 44.5704 29.4855 44.5704C28.6303 44.5704 27.9371 43.8916 27.9371 43.0542C27.9371 42.4758 27.4565 42.0052 26.8657 42.0052H26.6827C25.4738 42.0051 25.1992 43.663 26.3334 44.046ZM39.5484 45.7985C39.5484 52.6955 33.8179 58.3066 26.7742 58.3066C19.7305 58.3066 14 52.6956 14 45.7985C14 38.9015 19.7305 33.2905 26.7742 33.2905C33.8179 33.2905 39.5484 38.9016 39.5484 45.7985ZM36.4516 45.7985C36.4516 40.5735 32.1104 36.3227 26.7742 36.3227C21.438 36.3227 17.0968 40.5735 17.0968 45.7985C17.0968 51.0236 21.438 55.2743 26.7742 55.2743C32.1104 55.2743 36.4516 51.0236 36.4516 45.7985ZM60.4516 55.2743H59.3871V30.2582C59.3871 29.4208 58.6939 28.7421 57.8387 28.7421C56.9835 28.7421 56.2903 29.4208 56.2903 30.2582V55.2743H48.4516V36.3227C48.4516 35.4853 47.7584 34.8066 46.9032 34.8066C46.048 34.8066 45.3548 35.4853 45.3548 36.3227V55.2743H38.7742C37.919 55.2743 37.2258 55.9531 37.2258 56.7905C37.2258 57.6278 37.919 58.3066 38.7742 58.3066H60.4516C61.3068 58.3066 62 57.6278 62 56.7905C62 55.9531 61.3068 55.2743 60.4516 55.2743ZM37.8367 35.0259L43.371 29.607L45.8084 31.9936C46.4131 32.5856 47.3935 32.5856 47.9981 31.9936L56.2903 23.8741V24.5727C56.2903 25.4101 56.9835 26.0888 57.8387 26.0888C58.6939 26.0888 59.3871 25.4101 59.3871 24.5727C59.3871 19.7613 59.3945 20.1697 59.37 19.9999C59.295 19.4826 58.9478 19.0226 58.4307 18.813C58.0477 18.6578 58.1664 18.6977 53.3871 18.6977C52.5319 18.6977 51.8387 19.3765 51.8387 20.2138C51.8387 21.0512 52.5319 21.73 53.3871 21.73H54.1006L46.9032 28.7773L44.4658 26.3907C43.8611 25.7987 42.8807 25.7987 42.2761 26.3907L35.647 32.8817C35.0423 33.4737 35.0423 34.4337 35.647 35.0258C36.2519 35.618 37.2321 35.6179 37.8367 35.0259Z" fill="#035385"/>
</g>
<defs>
<clipPath id="clip0">
<rect width="48" height="47" fill="white" transform="translate(14 15)"/>
</clipPath>
</defs>
</svg>
