<svg width="80" height="80" viewBox="0 0 80 80" fill="none" xmlns="http://www.w3.org/2000/svg">
<circle cx="40" cy="40" r="39" stroke="#09B9B9" stroke-width="2"/>
<path d="M33.2904 51.3687C30.1039 51.3687 27.5117 53.9608 27.5117 57.1474C27.5117 60.3339 30.1039 62.9261 33.2904 62.9261C36.477 62.9261 39.0692 60.3339 39.0692 57.1474C39.0692 53.9608 36.477 51.3687 33.2904 51.3687ZM33.2904 59.6239C31.9251 59.6239 30.8138 58.5127 30.8138 57.1473C30.8138 55.7819 31.9251 54.6707 33.2904 54.6707C34.6564 54.6707 35.767 55.7819 35.767 57.1473C35.767 58.5127 34.6559 59.6239 33.2904 59.6239Z" fill="#035385"/>
<path d="M51.7821 51.3687C48.5956 51.3687 46.0034 53.9608 46.0034 57.1474C46.0034 60.3339 48.5956 62.9261 51.7821 62.9261C54.9687 62.9261 57.5609 60.3339 57.5609 57.1474C57.5609 53.9608 54.9687 51.3687 51.7821 51.3687ZM51.7821 59.6239C50.4168 59.6239 49.3055 58.5127 49.3055 57.1473C49.3055 55.7819 50.4168 54.6707 51.7821 54.6707C53.1481 54.6707 54.2587 55.7819 54.2587 57.1473C54.2587 58.5127 53.1475 59.6239 51.7821 59.6239Z" fill="#035385"/>
<path d="M63.6496 29.3841C63.337 28.9839 62.8571 28.75 62.3491 28.75H54.424C53.5121 28.75 52.7729 29.4892 52.7729 30.4011C52.7729 31.313 53.5121 32.0522 54.424 32.0522H60.2385L56.9309 45.3707H30.2211L27.3546 32.0516H33.1253V28.7495H26.6439L25.0533 21.3582C24.8892 20.5976 24.2173 20.0544 23.4391 20.0544H18.6511C17.7392 20.0544 17 20.7936 17 21.7055C17 22.6174 17.7392 23.3566 18.6511 23.3566H22.1057L27.2735 47.3685C27.4375 48.1292 28.1095 48.6723 28.8877 48.6723H58.2215C58.9799 48.6723 59.6408 48.155 59.8235 47.4192L63.9512 30.799C64.0739 30.3059 63.9622 29.7841 63.6496 29.3841Z" fill="#035385"/>
<path d="M43.7471 18.073C37.0102 18.073 31.5293 23.5539 31.5293 30.2908C31.5293 37.0278 37.0102 42.5087 43.7471 42.5087C50.484 42.5087 55.965 37.0278 55.965 30.2908C55.965 23.5539 50.484 18.073 43.7471 18.073ZM43.7471 39.2066C38.8308 39.2066 34.8314 35.2066 34.8314 30.2908C34.8314 25.3751 38.8308 21.3751 43.7471 21.3751C48.6629 21.3751 52.6629 25.3751 52.6629 30.2908C52.6629 35.2066 48.6635 39.2066 43.7471 39.2066Z" fill="#035385"/>
<path d="M43.7473 25.1721C42.8353 25.1721 42.0962 25.9113 42.0962 26.8232V33.7576C42.0962 34.6696 42.8353 35.4087 43.7473 35.4087C44.6592 35.4087 45.3983 34.6696 45.3983 33.7576V26.8232C45.3983 25.9112 44.6593 25.1721 43.7473 25.1721Z" fill="#035385"/>
<path d="M47.1593 28.6401H40.28C39.3681 28.6401 38.6289 29.3793 38.6289 30.2912C38.6289 31.2031 39.3681 31.9423 40.28 31.9423H47.1593C48.0713 31.9423 48.8104 31.2031 48.8104 30.2912C48.8104 29.3793 48.0714 28.6401 47.1593 28.6401Z" fill="#035385"/>
</svg>
