<svg width="80" height="80" viewBox="0 0 80 80" fill="none" xmlns="http://www.w3.org/2000/svg">
<circle cx="40" cy="40" r="39" stroke="#09B9B9" stroke-width="2"/>
<path d="M60.2461 53.7375V48.2271H56.0234C48.7824 48.2271 42.2641 52.6103 39.5 59.2324C36.7359 52.6103 30.2176 48.2271 22.9766 48.2271H18.7539V53.7375C18.657 53.7367 16 53.7349 16 53.7349V56.4888H18.4632C28.6192 56.4888 36.2645 61.9661 36.3292 61.9966H42.6708C42.9241 61.8771 49.9622 56.4888 60.5367 56.4888H63V53.7349C63 53.7349 60.343 53.7367 60.2461 53.7375ZM21.5078 53.8705V50.981H22.9766C28.4624 50.981 33.4579 53.9538 36.1223 58.5973C31.7083 55.9564 26.6832 54.3301 21.5078 53.8705ZM42.8777 58.5973C45.5421 53.9538 50.5376 50.981 56.0234 50.981H57.4922V53.8705C52.3275 54.3291 47.3009 55.9509 42.8777 58.5973Z" fill="#035385"/>
<path d="M31.1053 36.542C32.0791 37.4369 32.6155 38.567 32.6155 39.7241V45.4733H35.3694V50.9811H43.6311V45.4733H46.385V39.7316C46.385 38.5758 46.9324 37.4328 47.9264 36.5132C50.4842 34.1466 51.8928 30.939 51.8928 27.4811C51.8928 20.5328 46.2307 14.9325 39.3166 15.0053C32.4587 15.0776 27.1147 20.558 27.1099 27.3893C27.1074 30.9314 28.5838 34.2247 31.1053 36.542V36.542ZM40.8772 48.2272H38.1233V45.4733H40.8772V48.2272ZM39.5002 17.7596C44.8352 17.7899 49.1389 22.1377 49.1389 27.4811C49.1389 30.1627 48.0441 32.6525 46.0561 34.4918C44.4922 35.9386 43.6311 37.7994 43.6311 39.7316V42.7194H35.3694V39.7241C35.3694 37.7871 34.5169 35.937 32.9688 34.5143C30.9397 32.6495 29.8511 30.0969 29.8596 27.3893C29.8766 21.9747 34.1054 17.729 39.5002 17.7596V17.7596Z" fill="#035385"/>
<path d="M38.123 33.7309V37.1193H40.877V33.7309C42.2257 32.7832 45.0078 30.4663 45.0078 27.4807C45.0078 23.7787 40.7144 21.0135 40.2248 20.7104L39.5 20.2615L38.7752 20.7103C38.2856 21.0135 33.9922 23.7787 33.9922 27.4807C33.9922 30.4664 36.7743 32.7832 38.123 33.7309ZM39.4999 23.5646C40.6217 24.4332 42.2539 26.0139 42.2539 27.4807C42.2539 28.9455 40.6129 30.4898 39.4979 31.3251C38.3825 30.4933 36.7461 28.9552 36.7461 27.4807C36.7461 26.0136 38.3791 24.4324 39.4999 23.5646V23.5646Z" fill="#035385"/>
</svg>
