<svg width="18" height="22" viewBox="0 0 18 22" fill="none" xmlns="http://www.w3.org/2000/svg">
<path d="M16.202 3.82512C14.5225 1.39438 11.8607 0 8.8997 0C5.93868 0 3.27689 1.39438 1.59737 3.82512C-0.0738994 6.24357 -0.459802 9.3054 0.563027 12.0105C0.836609 12.7492 1.2715 13.4669 1.85252 14.1395L8.31407 21.7292C8.46021 21.901 8.67432 22 8.8997 22C9.12507 22 9.33918 21.901 9.48532 21.7292L15.9451 14.1415C16.5287 13.4651 16.963 12.7482 17.2343 12.0154C18.2592 9.3054 17.8733 6.24357 16.202 3.82512ZM15.7938 11.4767C15.5846 12.042 15.243 12.601 14.7792 13.1387L14.7756 13.1428L8.8997 20.0444L3.0202 13.1385C2.55661 12.6013 2.21505 12.0423 2.00377 11.4715C1.15789 9.23437 1.47891 6.70282 2.86276 4.70001C4.25095 2.69079 6.45147 1.53845 8.8997 1.53845C11.3479 1.53845 13.5481 2.69075 14.9364 4.70001C16.3205 6.70282 16.6418 9.23437 15.7938 11.4767Z" fill="white"/>
<path d="M8.8995 4.56445C6.52436 4.56445 4.5918 6.49676 4.5918 8.87216C4.5918 11.2476 6.5241 13.1799 8.8995 13.1799C11.2749 13.1799 13.2072 11.2476 13.2072 8.87216C13.2072 6.49702 11.2746 4.56445 8.8995 4.56445ZM8.8995 11.6414C7.37256 11.6414 6.13025 10.3991 6.13025 8.87211C6.13025 7.34518 7.37256 6.10286 8.8995 6.10286C10.4264 6.10286 11.6688 7.34518 11.6688 8.87211C11.6688 10.3991 10.4264 11.6414 8.8995 11.6414Z" fill="white"/>
</svg>
