<svg width="80" height="80" viewBox="0 0 80 80" fill="none" xmlns="http://www.w3.org/2000/svg">
<circle cx="40" cy="40" r="39" stroke="#09B9B9" stroke-width="2"/>
<path d="M38.0623 57.4844H28.4043C26.4659 57.4844 24.8887 55.9072 24.8887 53.9688V27.4258C24.8887 25.4874 26.4659 23.9102 28.4043 23.9102H33.9318V24.7891C33.9318 27.697 36.2973 30.0625 39.2052 30.0625C42.1128 30.0625 44.4787 27.697 44.4787 24.7891V23.9102H50.0158C51.9542 23.9102 53.5314 25.4874 53.5314 27.4258V35.248C53.5314 36.219 54.3183 37.0059 55.2892 37.0059C56.2598 37.0059 57.047 36.219 57.047 35.248V27.4258C57.047 23.5486 53.8926 20.3945 50.0158 20.3945H44.4787V17.7578C44.4787 16.7869 43.6914 16 42.7209 16H35.6896C34.7187 16 33.9318 16.7869 33.9318 17.7578V20.3945H28.4043C24.5272 20.3945 21.373 23.5486 21.373 27.4258V53.9688C21.373 57.8459 24.5272 61 28.4043 61H38.0627C39.0332 61 39.8205 60.2131 39.8205 59.2422C39.8205 58.2713 39.0332 57.4844 38.0623 57.4844ZM37.4471 19.5156H40.9627V24.7891C40.9627 25.7583 40.1741 26.5469 39.2049 26.5469C38.2357 26.5469 37.4471 25.7583 37.4471 24.7891V19.5156ZM51.0701 39.7305C45.2062 39.7305 40.4354 44.5013 40.4354 50.3652C40.4354 56.2292 45.2062 61 51.0701 61C56.9344 61 61.7049 56.2292 61.7049 50.3652C61.7049 44.5013 56.9344 39.7305 51.0701 39.7305ZM51.0701 57.4844C47.1446 57.4844 43.951 54.2908 43.951 50.3652C43.951 46.4397 47.1446 43.2461 51.0701 43.2461C54.9957 43.2461 58.1893 46.4397 58.1893 50.3652C58.1893 54.2908 54.9957 57.4844 51.0701 57.4844ZM55.3768 50.3652C55.3768 51.3362 54.5899 52.123 53.6189 52.123H51.0701C50.0995 52.123 49.3123 51.3362 49.3123 50.3652V46.7617C49.3123 45.7908 50.0995 45.0039 51.0701 45.0039C52.041 45.0039 52.8279 45.7908 52.8279 46.7617V48.6074H53.6189C54.5899 48.6074 55.3768 49.3943 55.3768 50.3652Z" fill="#035385"/>
</svg>
