<svg width="80" height="80" viewBox="0 0 80 80" fill="none" xmlns="http://www.w3.org/2000/svg">
<circle cx="40" cy="40" r="39" stroke="#09B9B9" stroke-width="2"/>
<path d="M55.9609 20.6016H23.0391C20.2604 20.6016 18 22.7568 18 25.4062V53.5938C18 56.2432 20.2604 58.3984 23.0391 58.3984H55.9609C58.7396 58.3984 61 56.2432 61 53.5938V25.4062C61 22.7568 58.7396 20.6016 55.9609 20.6016ZM23.0391 23.8047H55.9609C56.8871 23.8047 57.6406 24.5232 57.6406 25.4062V30.2109H21.3594V25.4062C21.3594 24.5232 22.1129 23.8047 23.0391 23.8047ZM55.9609 55.1953H23.0391C22.1129 55.1953 21.3594 54.4768 21.3594 53.5938V33.4141H57.6406V53.5938C57.6406 54.4768 56.8871 55.1953 55.9609 55.1953ZM23.8789 27.0078C23.8789 26.1232 24.6308 25.4062 25.5586 25.4062C26.4864 25.4062 27.2383 26.1232 27.2383 27.0078C27.2383 27.8924 26.4864 28.6094 25.5586 28.6094C24.6308 28.6094 23.8789 27.8924 23.8789 27.0078ZM29.7578 27.0078C29.7578 26.1232 30.5097 25.4062 31.4375 25.4062C32.3653 25.4062 33.1172 26.1232 33.1172 27.0078C33.1172 27.8924 32.3653 28.6094 31.4375 28.6094C30.5097 28.6094 29.7578 27.8924 29.7578 27.0078ZM47.1124 35.4848L53.0034 41.1016L47.1124 46.7183L44.7372 44.4536L46.5727 42.7031H37.7363V39.5H46.5727L44.7372 37.7495L47.1124 35.4848ZM32.4273 45.9062H41.0957V49.1094H32.4273L34.2628 50.8598L31.8876 53.1245L25.9966 47.5078L31.8876 41.8911L34.2628 44.1558L32.4273 45.9062Z" fill="#035385"/>
</svg>
