<svg width="80" height="80" viewBox="0 0 80 80" fill="none" xmlns="http://www.w3.org/2000/svg">
<circle cx="40" cy="40" r="39" stroke="#09B9B9" stroke-width="2"/>
<path d="M38.0546 62.6257C32.772 62.6218 27.7068 60.5215 23.9714 56.7861C20.236 53.0507 18.1357 47.9855 18.1318 42.7029C18.133 31.718 27.0663 22.7812 38.0546 22.7812C38.5053 22.7812 38.9375 22.9603 39.2561 23.2789C39.5748 23.5976 39.7538 24.0298 39.7538 24.4805V41.0037H56.2782C56.7288 41.0037 57.161 41.1827 57.4797 41.5014C57.7984 41.82 57.9774 42.2522 57.9774 42.7029C57.9774 53.6878 49.0429 62.6257 38.0546 62.6257ZM36.3554 26.2624C28.0394 27.1154 21.5314 34.1615 21.5303 42.6995C21.5333 47.0814 23.2751 51.283 26.3732 54.3818C29.4714 57.4807 33.6727 59.2233 38.0546 59.2272C46.5926 59.2272 53.6387 52.7192 54.4917 44.4021H38.0546C37.6039 44.4021 37.1717 44.2231 36.8531 43.9044C36.5344 43.5858 36.3554 43.1535 36.3554 42.7029V26.2624Z" fill="#035385"/>
<path d="M61.9716 39.1649H43.2915C42.8408 39.1649 42.4086 38.9859 42.09 38.6673C41.7713 38.3486 41.5923 37.9164 41.5923 37.4657V18.7856C41.5923 18.335 41.7713 17.9028 42.09 17.5841C42.4086 17.2655 42.8408 17.0864 43.2915 17.0864C54.529 17.0864 63.6708 26.2294 63.6708 37.4657C63.6708 37.9164 63.4918 38.3486 63.1731 38.6673C62.8545 38.9859 62.4223 39.1649 61.9716 39.1649ZM44.9907 35.7665H60.1885C59.7913 31.8713 58.0624 28.2324 55.2937 25.4639C52.525 22.6954 48.8859 20.9668 44.9907 20.5698V35.7665Z" fill="#035385"/>
</svg>
