<svg width="80" height="80" viewBox="0 0 80 80" fill="none" xmlns="http://www.w3.org/2000/svg">
<circle cx="40" cy="40" r="39" stroke="#09B9B9" stroke-width="2"/>
<g clip-path="url(#clip0)">
<path d="M51.8333 36.4167C51.8333 46.0233 44.0233 53.8333 34.4167 53.8333C28.2383 53.8333 22.8117 50.6067 19.7133 45.7483C19.035 44.685 18.4667 43.53 18.045 42.3383C17.3667 40.4867 17 38.4883 17 36.4167C17 26.81 24.81 19 34.4167 19C39.77 19 44.555 21.42 47.745 25.215L45.05 27.7267C42.5383 24.6283 38.7067 22.6667 34.4167 22.6667C26.8267 22.6667 20.6667 28.8267 20.6667 36.4167V36.49C20.6667 37.6267 20.8133 38.7083 21.0883 39.7533C21.4 41.0367 21.895 42.2283 22.555 43.3283C23.0317 44.135 23.5633 44.8867 24.1683 45.565C26.68 48.3883 30.3467 50.1667 34.4167 50.1667C41.6767 50.1667 47.635 44.52 48.1117 37.3883L49.78 35.83L51.6683 34.0883C51.7783 34.8583 51.8333 35.6283 51.8333 36.4167Z" fill="#035385"/>
<path d="M59.1668 62.9996C58.6975 62.9996 58.2281 62.82 57.8706 62.4625L44.3296 48.9215C43.6128 48.2046 43.6128 47.046 44.3296 46.3291C45.0465 45.6123 46.2051 45.6123 46.9219 46.3291L60.463 59.8701C61.1798 60.587 61.1798 61.7456 60.463 62.4625C60.1055 62.82 59.6361 62.9996 59.1668 62.9996Z" fill="#035385"/>
<path d="M60.4134 22.1714L50.9534 30.9897L47.91 33.813L40.2467 40.963C39.5684 41.6047 38.505 41.623 37.79 40.9997L31.6484 35.628L22.555 43.328C21.895 42.228 21.4 41.0364 21.0884 39.753L30.475 31.8147C31.1717 31.228 32.1984 31.228 32.8767 31.833L38.9634 37.1497L46.59 30.0547L49.3767 27.4514L57.92 19.4947C58.6534 18.798 59.8267 18.8347 60.505 19.5864C61.2017 20.3197 61.165 21.4747 60.4134 22.1714Z" fill="#035385"/>
<path d="M59.1669 29.0833C58.6902 29.0833 58.2209 28.8963 57.8707 28.5462L51.454 22.1295C50.9297 21.6052 50.772 20.8168 51.0562 20.1312C51.3404 19.4473 52.0095 19 52.7502 19H59.1669C60.1789 19 61.0002 19.8213 61.0002 20.8333V27.25C61.0002 27.9907 60.5529 28.6598 59.869 28.944C59.6417 29.0375 59.4034 29.0833 59.1669 29.0833Z" fill="#035385"/>
</g>
<defs>
<clipPath id="clip0">
<rect width="44" height="44" fill="white" transform="translate(17 19)"/>
</clipPath>
</defs>
</svg>
