<svg width="80" height="80" viewBox="0 0 80 80" fill="none" xmlns="http://www.w3.org/2000/svg">
<circle cx="40" cy="40" r="39" stroke="#09B9B9" stroke-width="2"/>
<g clip-path="url(#clip0)">
<path d="M22.3908 46.8872V54.7346H27.8711V63H46.7378V57.4102C46.7378 52.3519 47.8437 47.0512 50.1126 41.2583H53.0076L55.3086 43.5592C55.0555 44.0871 54.9134 44.6779 54.9134 45.3013C54.9134 47.5305 56.7271 49.3441 58.9563 49.3441C61.1856 49.3441 62.9992 47.5305 62.9992 45.3013C62.9992 43.072 61.1856 41.2584 58.9563 41.2584C58.333 41.2584 57.7422 41.4004 57.2144 41.6535L54.124 38.5631H51.1977C51.5119 37.6846 51.7471 36.7846 51.9023 35.867H55.1452C55.7015 37.4364 57.1995 38.5631 58.9563 38.5631C61.1856 38.5631 62.9992 36.7495 62.9992 34.5203C62.9992 32.291 61.1856 30.4774 58.9563 30.4774C57.1995 30.4774 55.7015 31.6041 55.1452 33.1726H52.1283C52.1283 32.2606 52.0524 31.3599 51.9051 30.4774H54.124L57.2144 27.3871C57.7422 27.6402 58.3329 27.7822 58.9563 27.7822C61.1856 27.7822 62.9992 25.9686 62.9992 23.7394C62.9992 21.5101 61.1856 19.6965 58.9563 19.6965C56.7271 19.6965 54.9134 21.5101 54.9134 23.7394C54.9134 24.3628 55.0555 24.9535 55.3086 25.4813L53.0076 27.7821H51.2113C49.0532 21.6616 43.2167 17.0851 36.1524 17.0012C28.1814 16.9074 21.4884 22.5429 20.026 29.8636C19.5153 32.42 19.5915 34.9487 20.2516 37.3896L17.0017 42.9823L22.3908 46.8872ZM58.9563 43.9536C59.6994 43.9536 60.3039 44.5581 60.3039 45.3012C60.3039 46.0443 59.6994 46.6488 58.9563 46.6488C58.2132 46.6488 57.6087 46.0443 57.6087 45.3012C57.6087 44.5581 58.2131 43.9536 58.9563 43.9536ZM58.9563 33.1726C59.6994 33.1726 60.3039 33.7771 60.3039 34.5202C60.3039 35.2633 59.6994 35.8678 58.9563 35.8678C58.2132 35.8678 57.6087 35.2633 57.6087 34.5202C57.6087 33.7771 58.2131 33.1726 58.9563 33.1726ZM58.9563 22.3916C59.6994 22.3916 60.3039 22.9961 60.3039 23.7392C60.3039 24.4823 59.6994 25.0868 58.9563 25.0868C58.2132 25.0868 57.6087 24.4823 57.6087 23.7392C57.6087 22.9961 58.2131 22.3916 58.9563 22.3916ZM48.3731 38.3914C48.3487 38.4488 48.3253 38.5057 48.3011 38.5631H39.9961C40.5859 37.7792 41.009 36.8632 41.2118 35.8669H49.1611C48.984 36.7303 48.7212 37.5735 48.3731 38.3914ZM38.6521 34.5202C38.6521 36.7494 36.8385 38.5631 34.6092 38.5631C32.38 38.5631 30.5664 36.7494 30.5664 34.5202C30.5664 32.2909 32.38 30.4773 34.6092 30.4773C36.8385 30.4773 38.6521 32.2909 38.6521 34.5202ZM49.4331 33.1726H41.2118C41.0089 32.1772 40.5859 31.2612 39.996 30.4773H49.1597C49.3388 31.3491 49.4331 32.2506 49.4331 33.1726ZM22.669 30.3916C23.9226 24.1166 29.579 19.619 36.1205 19.6962C41.5494 19.7606 46.229 23.0846 48.2986 27.7821H34.6092C30.8938 27.7821 27.8711 30.8048 27.8711 34.5202C27.8711 38.2356 30.8938 41.2583 34.6092 41.2574H47.2279C45.088 46.9914 44.0426 52.3007 44.0426 57.4102V60.3047H30.5664V52.0393H25.086V45.5119L20.5565 42.2296L23.1687 37.7341C23.0973 37.3607 21.8459 34.5131 22.669 30.3916Z" fill="#035385"/>
<path d="M33.2612 33.1724H35.9565V35.8677H33.2612V33.1724Z" fill="#035385"/>
</g>
<defs>
<clipPath id="clip0">
<rect width="46" height="46" fill="white" transform="translate(17 17)"/>
</clipPath>
</defs>
</svg>
