<svg width="80" height="80" viewBox="0 0 80 80" fill="none" xmlns="http://www.w3.org/2000/svg">
<circle cx="40" cy="40" r="39" stroke="#09B9B9" stroke-width="2"/>
<path d="M63.7296 30.5369L53.897 17.5454C53.637 17.2025 53.2268 17 52.7904 17C52.354 17 51.9434 17.2025 51.6842 17.5454L41.8515 30.5369C41.542 30.9458 41.4943 31.4908 41.7285 31.9453C41.9623 32.3998 42.4381 32.6869 42.9581 32.6869H46.4973V39.2005C45.8041 38.851 45.0192 38.6523 44.1869 38.6523H41.7289C38.9366 38.6523 36.665 40.8756 36.665 43.6085V46.4179C35.9718 46.0683 35.1865 45.8697 34.3546 45.8697H31.8966C29.1043 45.8697 26.8327 48.0933 26.8327 50.8262V53.6352C26.1392 53.286 25.3542 53.087 24.5223 53.087H22.0639C19.2716 53.087 17 55.3106 17 58.0435V61.6523C17 62.3967 17.6164 63 18.377 63H57.7065C58.4671 63 59.0835 62.3967 59.0835 61.6523V32.6869H62.623C63.143 32.6869 63.6188 32.3998 63.8526 31.9453C64.0868 31.4908 64.0391 30.9458 63.7296 30.5369ZM19.7539 58.0435C19.7539 56.7969 20.7902 55.7823 22.0639 55.7823H24.522C25.796 55.7823 26.8323 56.7969 26.8323 58.0435V60.3047H19.7539V58.0435ZM29.5862 58.0435V50.8262C29.5862 49.5792 30.6225 48.565 31.8966 48.565H34.3546C35.6283 48.565 36.6646 49.5792 36.6646 50.8262V60.3047H29.5862V58.0435ZM39.4189 50.8262V43.6085C39.4189 42.3619 40.4552 41.3477 41.7289 41.3477H44.1869C45.4606 41.3477 46.4973 42.3619 46.4973 43.6085V60.3047H39.4189V50.8262ZM57.7065 29.9915C56.946 29.9915 56.3296 30.5948 56.3296 31.3392V60.3047H49.2512V31.3392C49.2512 30.5948 48.6344 29.9915 47.8742 29.9915H45.6915L52.7904 20.6116L59.8896 29.9915H57.7065Z" fill="#035385"/>
</svg>
