<svg width="80" height="80" viewBox="0 0 80 80" fill="none" xmlns="http://www.w3.org/2000/svg">
<circle cx="40" cy="40" r="39" stroke="#09B9B9" stroke-width="2"/>
<g clip-path="url(#clip0)">
<path d="M62.728 56.6039L56.4051 44.2049C58.4747 41.2123 59.6852 37.6044 59.6852 33.7241C59.6852 23.3996 51.1176 15 40.5867 15C30.0557 15 21.4881 23.3996 21.4881 33.7241C21.4881 37.6044 22.6986 41.2127 24.7686 44.2057L18.445 56.6039C18.2135 57.0582 18.2384 57.5972 18.5104 58.029C18.7827 58.4608 19.2637 58.7241 19.7816 58.7241H27.0363L31.3892 64.4141C31.6732 64.7849 32.1168 65 32.5845 65C33.2043 65 33.6926 64.6376 33.921 64.1901L39.9163 52.4352C40.1388 52.4428 40.3622 52.4481 40.5867 52.4481C40.8112 52.4481 41.0345 52.4428 41.2571 52.4352L47.2523 64.1901C47.48 64.6368 47.9687 65 48.5889 65C49.0562 65 49.5002 64.7849 49.7838 64.4141L54.1371 58.7241H61.3918C61.9097 58.7241 62.3906 58.4608 62.6626 58.029C62.935 57.5972 62.9599 57.0582 62.728 56.6039ZM32.3296 60.76L28.9787 56.3803C28.6966 56.0114 28.2538 55.7944 27.7834 55.7944H22.199L26.8355 46.7039C29.4682 49.3834 32.9047 51.2988 36.7611 52.0705L32.3296 60.76ZM24.4764 33.7241C24.4764 25.0151 31.7035 17.9297 40.5867 17.9297C49.4698 17.9297 56.6969 25.0151 56.6969 33.7241C56.6969 42.433 49.4698 49.5184 40.5867 49.5184C31.7035 49.5184 24.4764 42.433 24.4764 33.7241ZM53.3896 55.7944C52.9196 55.7944 52.4768 56.0114 52.1943 56.3803L48.8438 60.76L44.4119 52.0705C48.2687 51.2984 51.7056 49.3834 54.3382 46.7032L58.9739 55.794H53.3896V55.7944Z" fill="#035385"/>
<path d="M48.2137 36.1531L52.3864 31.2703C52.7172 30.8835 52.8214 30.357 52.6623 29.8772C52.5032 29.3969 52.1032 29.0311 51.604 28.9086L45.3009 27.3629L41.8531 21.9632C41.58 21.5352 41.1014 21.2754 40.5866 21.2754C40.0718 21.2754 39.5932 21.5352 39.3201 21.9632L35.8731 27.3629L29.5704 28.9086C29.0708 29.0311 28.6708 29.3969 28.5117 29.8768C28.353 30.357 28.4568 30.8835 28.7876 31.2703L32.9603 36.1531L32.5113 42.5072C32.4758 43.0108 32.707 43.4968 33.1233 43.7935C33.7556 44.2441 34.3988 44.0308 34.5603 43.9671L40.5866 41.586L46.613 43.9675C47.0904 44.1559 47.6332 44.0903 48.0495 43.7939C48.4663 43.4971 48.6974 43.0112 48.662 42.5076L48.2137 36.1531ZM45.5363 34.7241C45.2881 35.0148 45.1644 35.3879 45.1912 35.7659L45.5161 40.3752L41.1454 38.6479C40.6609 38.4564 40.236 38.5655 40.0283 38.6479L35.6575 40.3752L35.9832 35.7663C36.0096 35.3882 35.8859 35.0148 35.6377 34.7241L32.6113 31.1829L37.1828 30.0618C37.5579 29.9698 37.8816 29.7391 38.0867 29.4179L40.587 25.5013L43.0877 29.4179C43.2928 29.7391 43.6165 29.9698 43.9916 30.0618L48.5631 31.1829L45.5363 34.7241Z" fill="#035385"/>
</g>
<defs>
<clipPath id="clip0">
<rect width="51" height="50" fill="white" transform="translate(15 15)"/>
</clipPath>
</defs>
</svg>
