<svg width="80" height="80" viewBox="0 0 80 80" fill="none" xmlns="http://www.w3.org/2000/svg">
<circle cx="40" cy="40" r="39" stroke="#09B9B9" stroke-width="2"/>
<path d="M34.8438 33.5547C30.3523 33.5547 25.8203 34.7504 25.8203 37.4219V52.8906C25.8203 55.5621 30.3523 56.7578 34.8438 56.7578C39.3352 56.7578 43.8672 55.5621 43.8672 52.8906V37.4219C43.8672 34.7504 39.3352 33.5547 34.8438 33.5547ZM41.2891 42.4685C40.9109 42.9161 38.6986 43.8672 34.8438 43.8672C30.9889 43.8672 28.7766 42.9161 28.3984 42.4685V40.2596C30.1171 40.9592 32.4859 41.2891 34.8438 41.2891C37.2016 41.2891 39.5704 40.9592 41.2891 40.2596V42.4685ZM41.2891 47.6247C40.9109 48.0724 38.6986 49.0234 34.8438 49.0234C30.9889 49.0234 28.7766 48.0724 28.3984 47.6247V45.4159C30.1171 46.1155 32.4859 46.4453 34.8438 46.4453C37.2016 46.4453 39.5704 46.1155 41.2891 45.4159V47.6247ZM34.8438 36.1328C38.4066 36.1328 40.5668 36.9454 41.1721 37.4219C40.5668 37.8984 38.4066 38.7109 34.8438 38.7109C31.2809 38.7109 29.1207 37.8984 28.5154 37.4219C29.1207 36.9454 31.2809 36.1328 34.8438 36.1328ZM34.8438 54.1797C30.9903 54.1797 28.7777 53.2291 28.3984 52.7814V50.5722C30.1171 51.2717 32.4859 51.6016 34.8438 51.6016C37.2016 51.6016 39.5704 51.2717 41.2891 50.5721V52.7813C40.9098 53.2291 38.6972 54.1797 34.8438 54.1797Z" fill="#035385"/>
<path d="M62 29.6875V18H50.3125V20.5781H57.7343L49.914 28.3984H20.5781V18H18V62H62V59.4219H51.6016V30.357L59.4219 22.5366V29.6875H62ZM20.5781 59.4219V30.9766H49.0234V59.4219H20.5781Z" fill="#035385"/>
</svg>
