<svg width="18" height="14" viewBox="0 0 18 14" fill="none" xmlns="http://www.w3.org/2000/svg">
<path d="M15.7252 0H2.27485C1.02052 0 0 1.02052 0 2.27485V10.9101C0 12.1644 1.02052 13.1849 2.27485 13.1849H15.7252C16.9795 13.1849 18 12.1644 18 10.9101V2.27485C18 1.02052 16.9795 0 15.7252 0ZM15.3698 1.46739L9 6.38795L2.63025 1.46739H15.3698ZM15.7252 11.7176H2.27485C1.82964 11.7176 1.46739 11.3554 1.46739 10.9102V2.42335L8.55147 7.89574C8.68353 7.99777 8.84181 8.04874 9 8.04874C9.15819 8.04874 9.31647 7.99777 9.44853 7.89574L16.5326 2.42335V10.9101C16.5326 11.3554 16.1704 11.7176 15.7252 11.7176Z" fill="white"/>
</svg>
