<svg width="54" height="60" viewBox="0 0 54 60" fill="none" xmlns="http://www.w3.org/2000/svg">
<path d="M0.813123 44.9414C3.52344 49.6361 11.3052 48.8074 16.5874 47.4851C18.0695 52.7186 21.25 60 26.6923 60C32.1347 60 35.3152 52.7187 36.7973 47.4851C42.0679 48.8045 49.8677 49.6249 52.5716 44.9414C55.2841 40.2432 50.6512 33.8967 46.879 30C50.6573 26.0968 55.2825 19.7538 52.5716 15.0586C49.8614 10.3639 42.0582 11.198 36.7973 12.5149C35.3154 7.28156 32.1347 0 26.6923 0C21.25 0 18.0695 7.28133 16.5874 12.5149C11.3282 11.1984 3.52367 10.3634 0.813123 15.0586C-1.89942 19.7568 2.73336 26.103 6.50574 30C2.72738 33.903 -1.89778 40.2461 0.813123 44.9414ZM3.85777 43.1836C2.20297 40.3173 6.72113 34.8312 9.04133 32.4336C10.7523 33.9662 12.6523 35.4736 14.7004 36.9223C14.93 39.4194 15.2838 41.8196 15.7534 44.0709C12.5267 44.8786 5.51305 46.0509 3.85777 43.1836ZM22.2978 22.3884C23.7608 21.5438 25.2304 20.7614 26.6923 20.045C28.1543 20.7613 29.6239 21.5438 31.0869 22.3884C32.5501 23.2331 33.9627 24.1148 35.3141 25.0228C35.4243 26.6477 35.4814 28.3117 35.4814 30C35.4814 31.6883 35.4243 33.3523 35.3141 34.9772C33.9627 35.8852 32.5501 36.7669 31.0869 37.6116C29.6239 38.4562 28.1543 39.2386 26.6923 39.955C25.2304 39.2387 23.7608 38.4562 22.2978 37.6116C20.8346 36.7669 19.422 35.8852 18.0706 34.9772C17.9604 33.3523 17.9033 31.6883 17.9033 30C17.9033 28.3117 17.9604 26.6477 18.0706 25.0228C19.422 24.1148 20.8346 23.2332 22.2978 22.3884ZM18.5238 20.5494C18.6942 19.3011 18.8988 18.0887 19.1361 16.9201C20.2675 17.2973 21.4211 17.7255 22.5894 18.202C21.9051 18.57 21.2216 18.9503 20.54 19.3438C19.8575 19.7379 19.1854 20.1403 18.5238 20.5494ZM30.7953 18.202C31.9636 17.7257 33.1172 17.2973 34.2486 16.9201C34.486 18.0886 34.6905 19.301 34.8609 20.5494C34.1993 20.1403 33.5272 19.7379 32.8447 19.3439C32.1631 18.9503 31.4795 18.57 30.7953 18.202ZM38.9613 27.6543C39.9563 28.4265 40.9025 29.21 41.7936 30C40.9025 30.7898 39.9563 31.5735 38.9613 32.3457C38.9846 31.569 38.997 30.7869 38.997 30C38.997 29.2131 38.9846 28.431 38.9613 27.6543ZM34.8609 39.4506C34.6904 40.6989 34.4859 41.9113 34.2486 43.0799C33.1172 42.7027 31.9636 42.2745 30.7953 41.798C31.4796 41.43 32.1631 41.0497 32.8447 40.6562C33.5272 40.2621 34.1993 39.8597 34.8609 39.4506ZM22.5894 41.798C21.4211 42.2743 20.2675 42.7027 19.1361 43.0799C18.8987 41.9114 18.6942 40.699 18.5238 39.4506C19.1854 39.8597 19.8575 40.2621 20.54 40.6561C21.2216 41.0497 21.9052 41.43 22.5894 41.798ZM14.4234 32.3457C13.4284 31.5735 12.4822 30.79 11.5911 30C12.4822 29.2102 13.4284 28.4265 14.4234 27.6543C14.4001 28.431 14.3877 29.2131 14.3877 30C14.3877 30.7869 14.4001 31.569 14.4234 32.3457ZM26.6923 56.4844C23.3711 56.4844 20.8696 49.7086 19.9631 46.5068C22.1497 45.7907 24.4094 44.8973 26.6923 43.8459C28.9753 44.8973 31.235 45.7907 33.4216 46.5068C32.518 49.6983 30.0164 56.4844 26.6923 56.4844ZM49.527 43.1836C47.8716 46.0508 40.8576 44.8785 37.6314 44.0709C38.101 41.8196 38.4548 39.4194 38.6844 36.9223C40.7325 35.4736 42.6325 33.9661 44.3435 32.4336C46.6607 34.8282 51.1823 40.3164 49.527 43.1836ZM49.527 16.8164C51.1818 19.6827 46.6637 25.1688 44.3435 27.5664C42.6325 26.0338 40.7325 24.5264 38.6844 23.0777C38.4548 20.5806 38.101 18.1804 37.6314 15.9291C40.9902 15.0884 47.8882 13.978 49.527 16.8164ZM26.6923 3.51562C30.0136 3.51562 32.515 10.2914 33.4216 13.4932C31.235 14.2093 28.9753 15.1027 26.6923 16.1541C24.4094 15.1027 22.1497 14.2093 19.9631 13.4932C20.8667 10.3016 23.3683 3.51562 26.6923 3.51562ZM3.85777 16.8164C5.5059 13.9616 12.4423 15.1003 15.7534 15.9291C15.2838 18.1804 14.93 20.5806 14.7004 23.0777C12.6523 24.5264 10.7523 26.0339 9.04133 27.5664C6.72383 25.1716 2.20238 19.6836 3.85777 16.8164Z" fill="white"/>
<path d="M26.6924 35.2734C29.6002 35.2734 31.9658 32.9078 31.9658 30C31.9658 27.0922 29.6002 24.7266 26.6924 24.7266C23.7846 24.7266 21.4189 27.0922 21.4189 30C21.4189 32.9078 23.7846 35.2734 26.6924 35.2734ZM26.6924 28.2422C27.6616 28.2422 28.4502 29.0307 28.4502 30C28.4502 30.9693 27.6616 31.7578 26.6924 31.7578C25.7231 31.7578 24.9346 30.9693 24.9346 30C24.9346 29.0307 25.7231 28.2422 26.6924 28.2422Z" fill="white"/>
</svg>
