<svg width="53" height="54" viewBox="0 0 53 54" fill="none" xmlns="http://www.w3.org/2000/svg">
<g clip-path="url(#clip0)">
<path d="M38.6284 12.4558C35.3675 11.92 32.1134 12.6293 29.3569 14.4571C30.1792 12.6165 31.4659 10.9518 33.206 9.48416C35.2789 7.73591 37.2457 6.9392 37.2617 6.93277C38.0757 6.61214 38.4805 5.6798 38.1658 4.8504C37.8512 4.0211 36.9365 3.60851 36.122 3.92923C35.8729 4.02732 31.9582 5.61325 28.8664 9.31573C28.7504 8.73291 28.5887 8.14629 28.3696 7.56474C26.5299 2.68196 21.476 0.250281 21.2618 0.149137C20.8741 -0.0338513 20.4301 -0.0490387 20.0311 0.106844C19.6323 0.262937 19.3123 0.576917 19.1444 0.97717C19.0516 1.19855 16.8929 6.45109 18.7325 11.3339C18.8984 11.7739 19.0905 12.1936 19.3026 12.5939C17.7044 12.2338 16.039 12.1816 14.3716 12.4557C7.06014 13.6578 2.04233 20.8479 3.18618 28.4842C4.00032 33.9197 5.19054 38.5883 6.72423 42.3599C8.4636 46.6379 10.6605 49.7832 13.2539 51.7087C15.3073 53.2332 17.5947 54.0002 20.077 54C20.7636 54 21.4656 53.9413 22.1812 53.8237C23.8325 53.5523 25.2792 52.9355 26.5 51.985C27.7209 52.9355 29.1676 53.5524 30.8189 53.8237C34.1207 54.3664 37.1245 53.6549 39.7461 51.7087C42.3394 49.7833 44.5364 46.638 46.2757 42.3599C47.8094 38.5881 48.9996 33.9196 49.8138 28.4842C50.9576 20.8479 45.9398 13.6578 38.6284 12.4558ZM21.5128 4.02911C22.821 4.95133 24.5941 6.52903 25.4191 8.71867C26.239 10.8946 25.9551 13.2863 25.5895 14.8695C24.2814 13.9474 22.5083 12.3697 21.6832 10.1799C20.8633 8.00412 21.1471 5.61251 21.5128 4.02911ZM46.6896 27.9984C45.0832 38.7234 42.0387 46.0224 37.8849 49.1062C35.9426 50.5481 33.7959 51.0515 31.3221 50.6446C29.806 50.3955 28.6084 49.7662 27.6606 48.7208C27.3615 48.391 26.9407 48.2034 26.4998 48.2034C26.0589 48.2034 25.6382 48.391 25.339 48.7208C24.3913 49.7662 23.1936 50.3954 21.6776 50.6446C19.2037 51.051 17.0571 50.5481 15.1148 49.1062C10.9609 46.0224 7.91642 38.7234 6.31006 27.9984C5.42697 22.1025 9.26916 16.5562 14.8747 15.6349C15.4126 15.5464 15.9506 15.5027 16.4845 15.5027C18.6667 15.5027 20.7832 16.2332 22.5726 17.6263C24.8848 19.4264 28.1146 19.4264 30.4268 17.6263C32.6542 15.8923 35.3883 15.1848 38.1247 15.6349H38.1248C43.7306 16.5564 47.5727 22.1026 46.6896 27.9984Z" fill="white"/>
</g>
<defs>
<clipPath id="clip0">
<rect width="53" height="54" fill="white"/>
</clipPath>
</defs>
</svg>
