<svg width="149" height="46" viewBox="0 0 149 46" fill="none" xmlns="http://www.w3.org/2000/svg">
<path d="M13.5103 40.7407C13.5103 37.6153 15.8313 35.4814 18.7824 35.4814C20.5966 35.4814 21.8568 36.3501 22.6713 37.4931L21.5948 38.088C21.0113 37.234 19.9503 36.6091 18.7824 36.6091C16.5381 36.6091 14.8324 38.3163 14.8324 40.7407C14.8324 43.1497 16.5381 44.8723 18.7824 44.8723C19.9503 44.8723 21.0113 44.2628 21.5948 43.3934L22.6868 43.9876C21.8258 45.1467 20.5966 46 18.7824 46C15.8313 46 13.5103 43.8661 13.5103 40.7407Z" fill="#035385"/>
<path d="M38.8817 36.9604L36.6993 42.4334H41.0485L38.8817 36.9604ZM42.3396 45.8179L41.4329 43.5618H36.3297L35.423 45.8179H33.9629L38.0827 35.6491H39.6652L43.8004 45.8179H42.3396Z" fill="#035385"/>
<path d="M61.9006 38.7138C61.9006 37.5707 61.0706 36.7775 59.8562 36.7775H57.167V40.6501H59.8562C61.0706 40.6501 61.9006 39.8568 61.9006 38.7138ZM55.8906 45.8179V35.6491H60.0104C62.0695 35.6491 63.2227 37.0519 63.2227 38.7138C63.2227 40.3756 62.0385 41.7777 60.0104 41.7777H57.167V45.8179H55.8906Z" fill="#035385"/>
<path d="M75.6665 35.6464H76.9429V45.8152H75.6665V35.6464Z" fill="#035385"/>
<path d="M92.6319 45.8179V36.7775H89.3887V35.6491H97.1663V36.7775H93.9076V45.8179H92.6319Z" fill="#035385"/>
<path d="M112.44 36.9604L110.257 42.4334H114.607L112.44 36.9604ZM115.898 45.8179L114.991 43.5618H109.888L108.982 45.8179H107.521L111.641 35.6491H113.224L117.359 45.8179H115.898Z" fill="#035385"/>
<path d="M129.449 45.8179V35.6491H130.725V44.6895H135.49V45.8179H129.449Z" fill="#035385"/>
<path d="M91.605 21.1317H96.1394V0.000926971H91.605V21.1317Z" fill="#035385"/>
<path d="M0 21.1317H4.53585V12.3314H0V21.1317Z" fill="#035385"/>
<path d="M14.5335 13.2754L4.6635 0.000932693H0V1.22446L4.53587 7.37431V7.3509L14.6929 21.1317H19.0686V0.000932693H14.5335V13.2754Z" fill="#035385"/>
<path d="M57.9077 21.1317H62.4428V12.3314H57.9077V21.1317Z" fill="#035385"/>
<path d="M69.4376 12.7682L64.2628 0.000932693H59.8774L66.0091 15.1238L68.4475 21.1317H70.4269L76.4332 6.33739V21.1317H81.0001V0.000932693H74.6124L69.4376 12.7682Z" fill="#035385"/>
<path d="M36.8466 0.000932693L41.8104 13.5915H35.1667H30.3453L27.4053 21.1317H32.5786L33.9213 17.5519H43.0558L44.3653 21.1317H49.5394L41.3309 0.000932693H36.8466Z" fill="#035385"/>
<path d="M111.279 12.3884H121.595V8.42807H111.279V8.4171H106.744V21.1317H121.818V17.1721H111.279V12.3884Z" fill="#035385"/>
<path d="M106.744 3.9535H118.55V3.96008H121.819V0.000440121H106.744V3.9535Z" fill="#035385"/>
<path d="M144.209 13.0851C146.508 12.5465 148.872 10.551 148.872 6.81231C148.872 2.88413 146.157 0.000932693 141.717 0.000932693H131.751V3.96131H136.288H137.82H141.047C142.868 3.96131 144.241 5.03775 144.241 6.81231C144.241 8.58613 142.868 9.66404 141.047 9.66404H137.82H136.288H131.751V21.1317H136.288V13.6237H139.61L143.794 21.1317H149L144.209 13.0851Z" fill="#035385"/>
</svg>
