<svg width="402" height="599" viewBox="0 0 402 599" fill="none" xmlns="http://www.w3.org/2000/svg">
<path d="M194.999 598.5L195 214M78.9996 111L139 111M195 214L180 214C162.326 214 148 199.673 148 182L148 166M195 214L195 162.5L195 143C195 125.327 180.673 111 163 111L139 111M139 111V111C139 95.536 126.463 83 111 83L105.5 83" stroke="#09B9B9" stroke-width="2"/>
<path d="M183 598L183 353M79.9996 263L118 263M183 353L183 295C183 277.327 168.673 263 151 263L118 263M183 353L163 353C145.326 353 131 338.673 131 321L131 304.5M118 263V263C118 251.954 109.045 243 97.9992 243H93.4996" stroke="#09B9B9" stroke-width="2"/>
<path d="M171 598.5L171 528M79.9998 415L112 415M171 528L171 447C171 429.327 156.673 415 139 415L112 415M171 528L170 528C152.327 528 138 513.673 138 496L138 487.5M112 415L112 413.5C112 401.074 101.926 391 89.4998 391V391" stroke="#09B9B9" stroke-width="2"/>
<circle cx="40" cy="112" r="39" stroke="#09B9B9" stroke-width="2"/>
<circle cx="41" cy="264" r="39" stroke="#09B9B9" stroke-width="2"/>
<circle cx="41" cy="416" r="39" stroke="#09B9B9" stroke-width="2"/>
<circle r="2" transform="matrix(-1 0 0 1 148 165)" fill="#09B9B9"/>
<circle r="2" transform="matrix(-1 0 0 1 104 83)" fill="#09B9B9"/>
<circle r="2" transform="matrix(-1 0 0 1 131 303)" fill="#09B9B9"/>
<circle r="2" transform="matrix(-1 0 0 1 138 486)" fill="#09B9B9"/>
<circle r="2" transform="matrix(-1 0 0 1 88 391)" fill="#09B9B9"/>
<circle r="2" transform="matrix(-1 0 0 1 92 243)" fill="#09B9B9"/>
<path d="M19.034 428.496C21.3007 432.422 27.8086 431.729 32.2262 430.624C33.4657 435 36.1256 441.09 40.6771 441.09C45.2285 441.09 47.8885 435.001 49.128 430.624C53.5358 431.727 60.0589 432.413 62.3201 428.496C64.5886 424.567 60.7141 419.26 57.5593 416.001C60.7192 412.736 64.5873 407.432 62.3201 403.505C60.0536 399.579 53.5277 400.276 49.128 401.378C47.8886 397.001 45.2285 390.911 40.6771 390.911C36.1256 390.911 33.4657 397.001 32.2262 401.378C27.8279 400.277 21.3009 399.578 19.034 403.505C16.7655 407.434 20.6399 412.742 23.7948 416.001C20.6349 419.265 16.7669 424.57 19.034 428.496ZM21.5803 427.026C20.1964 424.629 23.975 420.041 25.9154 418.036C27.3462 419.318 28.9353 420.578 30.6481 421.79C30.8401 423.878 31.136 425.886 31.5287 427.768C28.8302 428.444 22.9646 429.424 21.5803 427.026ZM37.0019 409.635C38.2254 408.929 39.4545 408.274 40.6771 407.675C41.8997 408.274 43.1288 408.929 44.3523 409.635C45.576 410.341 46.7573 411.079 47.8875 411.838C47.9797 413.197 48.0275 414.589 48.0275 416.001C48.0275 417.413 47.9797 418.804 47.8875 420.163C46.7573 420.922 45.576 421.66 44.3523 422.366C43.1288 423.073 41.8997 423.727 40.6771 424.326C39.4545 423.727 38.2254 423.073 37.0019 422.366C35.7782 421.66 34.5968 420.922 33.4666 420.163C33.3744 418.804 33.3267 417.413 33.3267 416.001C33.3267 414.589 33.3744 413.197 33.4666 411.838C34.5968 411.079 35.7782 410.342 37.0019 409.635ZM33.8456 408.097C33.9881 407.053 34.1592 406.039 34.3577 405.062C35.3039 405.377 36.2687 405.735 37.2457 406.134C36.6735 406.442 36.1018 406.76 35.5318 407.089C34.961 407.418 34.399 407.755 33.8456 408.097ZM44.1084 406.134C45.0854 405.736 46.0502 405.377 46.9964 405.062C47.195 406.039 47.366 407.053 47.5085 408.097C46.9552 407.755 46.3931 407.418 45.8223 407.089C45.2523 406.76 44.6806 406.442 44.1084 406.134ZM50.9377 414.039C51.7699 414.685 52.5612 415.34 53.3064 416.001C52.5612 416.661 51.7699 417.317 50.9377 417.962C50.9572 417.313 50.9676 416.659 50.9676 416.001C50.9676 415.343 50.9572 414.688 50.9377 414.039ZM47.5085 423.904C47.3659 424.948 47.1949 425.962 46.9964 426.94C46.0502 426.624 45.0854 426.266 44.1084 425.867C44.6807 425.56 45.2523 425.242 45.8223 424.913C46.3931 424.583 46.9552 424.246 47.5085 423.904ZM37.2457 425.867C36.2687 426.266 35.3039 426.624 34.3577 426.94C34.1591 425.962 33.9881 424.948 33.8456 423.904C34.399 424.246 34.961 424.583 35.5318 424.912C36.1018 425.242 36.6736 425.56 37.2457 425.867ZM30.4164 417.962C29.5843 417.317 28.793 416.661 28.0477 416.001C28.793 415.34 29.5843 414.685 30.4164 414.039C30.3969 414.688 30.3865 415.343 30.3865 416.001C30.3865 416.659 30.3969 417.313 30.4164 417.962ZM40.6771 438.15C37.8995 438.15 35.8075 432.483 35.0493 429.805C36.878 429.207 38.7678 428.459 40.6771 427.58C42.5863 428.459 44.4761 429.207 46.3048 429.805C45.5491 432.475 43.457 438.15 40.6771 438.15ZM59.7739 427.026C58.3895 429.424 52.5236 428.444 49.8256 427.768C50.2183 425.886 50.5141 423.878 50.7061 421.79C52.419 420.578 54.008 419.318 55.4389 418.036C57.3768 420.039 61.1583 424.628 59.7739 427.026ZM59.7739 404.975C61.1579 407.372 57.3793 411.96 55.4389 413.965C54.008 412.684 52.419 411.423 50.7061 410.212C50.5141 408.123 50.2183 406.116 49.8256 404.233C52.6345 403.53 58.4034 402.601 59.7739 404.975ZM40.6771 393.852C43.4546 393.852 45.5467 399.518 46.3048 402.196C44.4761 402.795 42.5863 403.542 40.6771 404.421C38.7678 403.542 36.878 402.795 35.0493 402.196C35.805 399.527 37.8972 393.852 40.6771 393.852ZM21.5803 404.975C22.9586 402.588 28.7597 403.54 31.5287 404.233C31.136 406.116 30.8401 408.123 30.6481 410.212C28.9353 411.423 27.3462 412.684 25.9154 413.965C23.9772 411.963 20.1959 407.373 21.5803 404.975Z" fill="#035385"/>
<path d="M40.6773 420.412C43.1091 420.412 45.0875 418.433 45.0875 416.002C45.0875 413.57 43.1091 411.591 40.6773 411.591C38.2455 411.591 36.2671 413.57 36.2671 416.002C36.2671 418.433 38.2455 420.412 40.6773 420.412ZM40.6773 414.531C41.4879 414.531 42.1474 415.191 42.1474 416.002C42.1474 416.812 41.4879 417.472 40.6773 417.472C39.8667 417.472 39.2072 416.812 39.2072 416.002C39.2072 415.191 39.8667 414.531 40.6773 414.531Z" fill="#035385"/>
<g clip-path="url(#clip0)">
<path d="M24.3905 271.887V279.735H29.8709V288H48.7376V282.41C48.7376 277.352 49.8435 272.051 52.1123 266.259H55.0074L57.3083 268.559C57.0552 269.087 56.9132 269.678 56.9132 270.302C56.9132 272.531 58.7268 274.344 60.9561 274.344C63.1853 274.344 64.9989 272.531 64.9989 270.302C64.9989 268.072 63.1853 266.259 60.9561 266.259C60.3327 266.259 59.7419 266.401 59.2141 266.654L56.1238 263.563H53.1974C53.5116 262.685 53.7468 261.785 53.9021 260.867H57.145C57.7013 262.437 59.1992 263.563 60.9561 263.563C63.1853 263.563 64.9989 261.75 64.9989 259.521C64.9989 257.291 63.1853 255.478 60.9561 255.478C59.1992 255.478 57.7013 256.604 57.145 258.173H54.1281C54.1281 257.261 54.0522 256.36 53.9048 255.478H56.1238L59.2141 252.387C59.7419 252.64 60.3327 252.782 60.9561 252.782C63.1853 252.782 64.9989 250.969 64.9989 248.74C64.9989 246.51 63.1853 244.697 60.9561 244.697C58.7268 244.697 56.9132 246.51 56.9132 248.74C56.9132 249.363 57.0552 249.954 57.3083 250.482L55.0074 252.782H53.2111C51.0529 246.662 45.2164 242.085 38.1522 242.001C30.1812 241.908 23.4882 247.543 22.0258 254.864C21.5151 257.42 21.5912 259.949 22.2513 262.39L19.0015 267.983L24.3905 271.887ZM60.9561 268.954C61.6991 268.954 62.3037 269.558 62.3037 270.301C62.3037 271.045 61.6991 271.649 60.9561 271.649C60.213 271.649 59.6084 271.045 59.6084 270.301C59.6084 269.558 60.2129 268.954 60.9561 268.954ZM60.9561 258.173C61.6991 258.173 62.3037 258.777 62.3037 259.52C62.3037 260.264 61.6991 260.868 60.9561 260.868C60.213 260.868 59.6084 260.264 59.6084 259.52C59.6084 258.777 60.2129 258.173 60.9561 258.173ZM60.9561 247.392C61.6991 247.392 62.3037 247.996 62.3037 248.739C62.3037 249.483 61.6991 250.087 60.9561 250.087C60.213 250.087 59.6084 249.483 59.6084 248.739C59.6084 247.996 60.2129 247.392 60.9561 247.392ZM50.3729 263.392C50.3485 263.449 50.325 263.506 50.3008 263.563H41.9959C42.5857 262.779 43.0088 261.863 43.2115 260.867H51.1608C50.9837 261.731 50.7209 262.574 50.3729 263.392ZM40.6519 259.52C40.6519 261.75 38.8382 263.563 36.609 263.563C34.3797 263.563 32.5661 261.75 32.5661 259.52C32.5661 257.291 34.3797 255.478 36.609 255.478C38.8382 255.478 40.6519 257.291 40.6519 259.52ZM51.4329 258.173H43.2115C43.0087 257.177 42.5856 256.261 41.9958 255.478H51.1595C51.3385 256.349 51.4329 257.251 51.4329 258.173ZM24.6688 255.392C25.9223 249.117 31.5788 244.619 38.1203 244.696C43.5492 244.761 48.2287 248.085 50.2983 252.782H36.609C32.8936 252.782 29.8709 255.805 29.8709 259.52C29.8709 263.236 32.8936 266.259 36.609 266.258H49.2277C47.0878 271.992 46.0424 277.301 46.0424 282.41V285.305H32.5661V277.04H27.0858V270.512L22.5562 267.23L25.1685 262.734C25.097 262.361 23.8456 259.513 24.6688 255.392Z" fill="#035385"/>
<path d="M35.2607 258.173H37.9561V260.868H35.2607V258.173Z" fill="#035385"/>
</g>
<g clip-path="url(#clip1)">
<path d="M57.1004 90.377C57.1004 89.6165 56.4824 89 55.7219 89C48.4361 89 42.1705 93.4504 39.4999 99.7755C36.8293 93.4504 30.5633 89 23.2764 89C22.5159 89 21.8994 89.6165 21.8994 90.377C21.8994 99.6185 29.0591 107.219 38.123 107.924V116.925C38.123 117.685 38.7395 118.302 39.4999 118.302C40.2603 118.302 40.8769 117.685 40.8769 116.925V107.924C49.9407 107.219 57.1004 99.6185 57.1004 90.377ZM24.7232 91.8237C31.7574 92.5065 37.3702 98.1194 38.0531 105.154C31.0194 104.47 25.4067 98.8574 24.7232 91.8237ZM40.9467 105.154C41.6295 98.1199 47.242 92.5073 54.2766 91.8239C53.593 98.8575 47.9804 104.47 40.9467 105.154Z" fill="#035385"/>
<path d="M30.887 116.688C29.1621 114.963 26.4124 114.937 24.6534 116.555V111.023C24.6534 107.013 21.3908 103.748 17.3785 103.748H17.377C16.6165 103.748 16 104.365 16 105.125V122.824C16 123.189 16.1451 123.539 16.4034 123.797L24.8492 132.243V134.623C24.8492 135.383 25.4657 136 26.2262 136H36.5503C37.3107 136 37.9272 135.383 37.9272 134.623V126.742C37.9272 124.799 37.1704 122.971 35.7962 121.597L30.887 116.688ZM35.1733 133.246H27.6031V131.673C27.6031 131.308 27.458 130.958 27.1998 130.699L18.7539 122.253V106.719C21.3556 107.554 21.8995 109.965 21.8995 111.023V119.874C21.8995 120.239 22.0446 120.589 22.3029 120.848L28.2024 126.747C28.7401 127.285 29.612 127.285 30.1497 126.747C30.6874 126.21 30.6874 125.338 30.1497 124.8L26.4625 121.113C25.778 120.428 25.7775 119.32 26.4625 118.635C27.1474 117.951 28.2546 117.95 28.9398 118.635L33.8489 123.545C34.7031 124.399 35.1734 125.534 35.1734 126.742V133.246H35.1733Z" fill="#035385"/>
<path d="M61.6229 103.749H61.6215C57.6092 103.749 54.3466 107.014 54.3466 111.024V116.556C52.5876 114.937 49.8379 114.964 48.113 116.689L43.2038 121.598C41.8296 122.972 41.0728 124.799 41.0728 126.743V134.623C41.0728 135.384 41.6893 136 42.4497 136H52.7737C53.5342 136 54.1507 135.384 54.1507 134.623V132.244L62.5965 123.798C62.8548 123.54 62.9999 123.19 62.9999 122.824V105.126C62.9999 104.365 62.3834 103.749 61.6229 103.749ZM60.246 122.254L51.8001 130.7C51.5419 130.958 51.3968 131.308 51.3968 131.674V133.246H43.8266V126.743C43.8266 125.535 44.2969 124.399 45.1511 123.545L50.0602 118.636C50.7454 117.951 51.8527 117.951 52.5375 118.636C53.2225 119.321 53.222 120.429 52.5375 121.113L48.8503 124.801C48.3127 125.338 48.3127 126.21 48.8503 126.748C49.388 127.286 50.2599 127.285 50.7976 126.748L56.6971 120.848C56.9554 120.59 57.1005 120.24 57.1005 119.875V111.024C57.1005 109.966 57.6444 107.555 60.2461 106.72V122.254H60.246Z" fill="#035385"/>
</g>
<path d="M207.001 599L207.001 143M321.501 40L263.001 40M207.001 143L222.001 143C239.674 143 254.001 128.673 254.001 111L254.001 95M207.001 143L207.001 91.5L207.001 72C207.001 54.3269 221.328 40 239.001 40L263.001 40M263.001 40V40C263.001 24.536 275.537 12 291.001 12L296.501 12" stroke="#09B9B9" stroke-width="2"/>
<path d="M219.001 598L219 282M322.5 192L284 192M219 282L219 224C219 206.327 233.327 192 251 192L284 192M219 282L239.001 282C256.674 282 271.001 267.673 271.001 250L271.001 233.5M284 192V192C284 180.954 292.955 172 304.001 172L308.5 172" stroke="#09B9B9" stroke-width="2"/>
<path d="M231 598L231 449M323 344L290 344M231 449L231 376C231 358.327 245.327 344 263 344L290 344M231 449L248 449C265.673 449 280 434.673 280 417L280 400.5M290 344L290 342.5C290 330.074 300.074 320 312.5 320V320" stroke="#09B9B9" stroke-width="2"/>
<circle cx="361" cy="40" r="39" stroke="#09B9B9" stroke-width="2"/>
<circle cx="362" cy="192" r="39" stroke="#09B9B9" stroke-width="2"/>
<circle cx="362" cy="344" r="39" stroke="#09B9B9" stroke-width="2"/>
<circle cx="254" cy="94" r="2" fill="#09B9B9"/>
<circle cx="297" cy="12" r="2" fill="#09B9B9"/>
<circle cx="271" cy="232" r="2" fill="#09B9B9"/>
<circle cx="280" cy="399" r="2" fill="#09B9B9"/>
<circle cx="314" cy="320" r="2" fill="#09B9B9"/>
<circle cx="310" cy="172" r="2" fill="#09B9B9"/>
<path d="M378.115 39.6154H373.515C372.888 39.6154 372.282 39.7009 371.705 39.8582C370.567 37.621 368.244 36.0837 365.566 36.0837H357.434C354.756 36.0837 352.433 37.621 351.295 39.8582C350.718 39.7009 350.112 39.6154 349.485 39.6154H344.885C341.089 39.6154 338 42.7039 338 46.5001V53.8547C338 56.1325 339.853 57.9856 342.131 57.9856H380.869C383.147 57.9856 385 56.1325 385 53.8547V46.5001C385 42.7039 381.911 39.6154 378.115 39.6154ZM350.549 42.9687V55.2317H342.131C341.372 55.2317 340.754 54.614 340.754 53.8548V46.5002C340.754 44.2225 342.607 42.3693 344.885 42.3693H349.485C349.859 42.3693 350.221 42.4201 350.566 42.5137C350.556 42.6643 350.549 42.8158 350.549 42.9687ZM369.697 55.2317H353.303V42.9686C353.303 40.6908 355.156 38.8377 357.434 38.8377H365.566C367.844 38.8377 369.697 40.6908 369.697 42.9686V55.2317ZM382.246 53.8548C382.246 54.614 381.628 55.2317 380.869 55.2317H372.451V42.9686C372.451 42.8156 372.444 42.6641 372.434 42.5136C372.779 42.4201 373.141 42.3693 373.515 42.3693H378.115C380.393 42.3693 382.246 44.2224 382.246 46.5001V53.8548Z" fill="#035385"/>
<path d="M347.185 26.6125C343.812 26.6125 341.067 29.357 341.067 32.7304C341.067 36.1039 343.812 38.8483 347.185 38.8483C350.559 38.8483 353.303 36.1039 353.303 32.7304C353.303 29.357 350.559 26.6125 347.185 26.6125ZM347.185 36.0944C345.33 36.0944 343.821 34.5854 343.821 32.7304C343.821 30.8755 345.33 29.3665 347.185 29.3665C349.04 29.3665 350.549 30.8755 350.549 32.7304C350.549 34.5854 349.04 36.0944 347.185 36.0944Z" fill="#035385"/>
<path d="M361.5 19.0142C356.993 19.0142 353.327 22.6807 353.327 27.1876C353.327 31.6944 356.993 35.361 361.5 35.361C366.007 35.361 369.673 31.6944 369.673 27.1876C369.673 22.6808 366.007 19.0142 361.5 19.0142ZM361.5 32.6071C358.512 32.6071 356.081 30.1759 356.081 27.1876C356.081 24.1993 358.512 21.7681 361.5 21.7681C364.488 21.7681 366.92 24.1992 366.92 27.1876C366.92 30.1759 364.488 32.6071 361.5 32.6071Z" fill="#035385"/>
<path d="M375.815 26.6125C372.441 26.6125 369.697 29.357 369.697 32.7304C369.697 36.1039 372.441 38.8483 375.815 38.8483C379.188 38.8483 381.933 36.1039 381.933 32.7304C381.933 29.357 379.188 26.6125 375.815 26.6125ZM375.815 36.0944C373.96 36.0944 372.451 34.5854 372.451 32.7304C372.451 30.8755 373.96 29.3665 375.815 29.3665C377.67 29.3665 379.179 30.8755 379.179 32.7304C379.179 34.5854 377.67 36.0944 375.815 36.0944Z" fill="#035385"/>
<path d="M383.92 182.265L380.777 173.05C380.563 172.423 379.962 172 379.286 172H344.714C344.038 172 343.437 172.423 343.223 173.05L340.08 182.265C340.032 182.408 340.005 182.558 340 182.709C340 182.724 340 182.735 340 182.75V184.286C340.006 186.692 341.17 188.955 343.143 190.395C343.143 190.407 343.143 190.416 343.143 190.429V210.393C343.143 212.937 345.253 215 347.857 215H376.143C378.746 215 380.857 212.937 380.857 210.393V190.429C380.857 190.416 380.857 190.407 380.857 190.395C382.83 188.955 383.994 186.692 384 184.286V182.75C384 182.735 384 182.724 384 182.709C383.995 182.558 383.968 182.408 383.92 182.265ZM373 175.071H378.153L380.249 181.214H373V175.071ZM363.571 175.071H369.857V181.214H363.571V175.071ZM354.143 175.071H360.429V181.214H354.143V175.071ZM345.847 175.071H351V181.214H343.751L345.847 175.071ZM365.143 211.929H358.857V199.643H365.143V211.929ZM377.714 210.393C377.714 211.241 377.011 211.929 376.143 211.929H368.286V198.107C368.286 197.259 367.582 196.571 366.714 196.571H357.286C356.418 196.571 355.714 197.259 355.714 198.107V211.929H347.857C346.989 211.929 346.286 211.241 346.286 210.393V191.811C348.491 192.253 350.784 191.739 352.571 190.401C355.377 192.414 359.195 192.414 362 190.401C364.805 192.414 368.623 192.414 371.429 190.401C373.216 191.739 375.509 192.253 377.714 191.811V210.393ZM376.143 188.893C374.784 188.892 373.493 188.309 372.612 187.299C372.041 186.66 371.048 186.595 370.395 187.153C370.341 187.198 370.292 187.247 370.245 187.299C368.498 189.205 365.501 189.365 363.551 187.658C363.422 187.545 363.299 187.425 363.183 187.299C362.568 186.66 361.54 186.63 360.886 187.231C360.862 187.253 360.839 187.275 360.817 187.299C359.069 189.205 356.072 189.365 354.122 187.658C353.993 187.545 353.87 187.425 353.755 187.299C353.14 186.66 352.111 186.63 351.458 187.231C351.434 187.253 351.411 187.275 351.388 187.299C350.506 188.309 349.216 188.892 347.857 188.893C345.253 188.893 343.143 186.83 343.143 184.286H380.857C380.857 186.83 378.746 188.893 376.143 188.893Z" fill="#035385"/>
<g clip-path="url(#clip2)">
<path d="M383.592 362.247H379.374V331.863H383.592C384.84 331.863 385.469 330.384 384.591 329.517L373.341 318.409C372.791 317.866 371.894 317.866 371.344 318.409L360.095 329.517C359.216 330.384 359.846 331.863 361.093 331.863H365.312V340.125H355.281C354.504 340.125 353.875 340.741 353.875 341.502V348.386H344.031C343.254 348.386 342.625 349.003 342.625 349.763V362.247H338.406C337.63 362.247 337 362.864 337 363.624C337 364.384 337.63 365.001 338.406 365.001H383.593C384.369 365.001 384.999 364.384 384.999 363.624C384.999 362.863 384.369 362.247 383.592 362.247ZM353.875 362.247H345.437V351.14H353.875V362.247ZM365.312 362.247H356.687V342.878H365.312V362.247ZM376.561 330.486V362.247H368.124V330.486C368.124 329.726 367.495 329.109 366.718 329.109H364.468L372.343 321.334L380.217 329.109H377.968C377.191 329.109 376.561 329.726 376.561 330.486Z" fill="#035385"/>
</g>
<defs>
<clipPath id="clip0">
<rect width="46" height="46" fill="white" transform="translate(19 242)"/>
</clipPath>
<clipPath id="clip1">
<rect width="47" height="47" fill="white" transform="translate(16 89)"/>
</clipPath>
<clipPath id="clip2">
<rect width="48" height="47" fill="white" transform="translate(337 318)"/>
</clipPath>
</defs>
</svg>
