<svg width="196" height="599" viewBox="0 0 196 599" fill="none" xmlns="http://www.w3.org/2000/svg">
<path d="M1.00051 599L1.00078 143M115.501 40L57.0008 40M1.00078 143L16.0008 143C33.6739 143 48.0008 128.673 48.0008 111L48.0008 95M1.00078 143L1.00077 91.5L1.00077 72C1.00077 54.3269 15.3277 40 33.0008 40L57.0008 40M57.0008 40V40C57.0008 24.536 69.5368 12 85.0008 12L90.5008 12" stroke="#09B9B9" stroke-width="2"/>
<path d="M13.0005 598L13.0005 282M116.5 192L78.0004 192M13.0005 282L13.0005 224C13.0005 206.327 27.3274 192 45.0005 192L78.0004 192M13.0005 282L33.0005 282C50.6736 282 65.0005 267.673 65.0005 250L65.0005 233.5M78.0004 192V192C78.0004 180.954 86.9549 172 98.0008 172L102.5 172" stroke="#09B9B9" stroke-width="2"/>
<path d="M25.0002 598L25 449M117 344L84 344M25 449L25 376C25 358.327 39.3269 344 57 344L84 344M25 449L42 449C59.6731 449 74 434.673 74 417L74 400.5M84 344L84 342.5C84 330.074 94.0736 320 106.5 320V320" stroke="#09B9B9" stroke-width="2"/>
<circle cx="155" cy="40" r="39" stroke="#09B9B9" stroke-width="2"/>
<circle cx="156" cy="192" r="39" stroke="#09B9B9" stroke-width="2"/>
<circle cx="156" cy="344" r="39" stroke="#09B9B9" stroke-width="2"/>
<circle cx="48" cy="94" r="2" fill="#09B9B9"/>
<circle cx="91" cy="12" r="2" fill="#09B9B9"/>
<circle cx="65" cy="232" r="2" fill="#09B9B9"/>
<circle cx="74" cy="399" r="2" fill="#09B9B9"/>
<circle cx="108" cy="320" r="2" fill="#09B9B9"/>
<circle cx="104" cy="172" r="2" fill="#09B9B9"/>
<path d="M172.115 39.6154H167.515C166.888 39.6154 166.282 39.7009 165.705 39.8582C164.567 37.621 162.244 36.0837 159.566 36.0837H151.434C148.756 36.0837 146.433 37.621 145.295 39.8582C144.718 39.7009 144.112 39.6154 143.485 39.6154H138.885C135.089 39.6154 132 42.7039 132 46.5001V53.8547C132 56.1325 133.853 57.9856 136.131 57.9856H174.869C177.147 57.9856 179 56.1325 179 53.8547V46.5001C179 42.7039 175.911 39.6154 172.115 39.6154ZM144.549 42.9687V55.2317H136.131C135.372 55.2317 134.754 54.614 134.754 53.8548V46.5002C134.754 44.2225 136.607 42.3693 138.885 42.3693H143.485C143.859 42.3693 144.221 42.4201 144.566 42.5137C144.556 42.6643 144.549 42.8158 144.549 42.9687ZM163.697 55.2317H147.303V42.9686C147.303 40.6908 149.156 38.8377 151.434 38.8377H159.566C161.844 38.8377 163.697 40.6908 163.697 42.9686V55.2317ZM176.246 53.8548C176.246 54.614 175.628 55.2317 174.869 55.2317H166.451V42.9686C166.451 42.8156 166.444 42.6641 166.434 42.5136C166.779 42.4201 167.141 42.3693 167.515 42.3693H172.115C174.393 42.3693 176.246 44.2224 176.246 46.5001V53.8548Z" fill="#035385"/>
<path d="M141.185 26.6125C137.812 26.6125 135.067 29.357 135.067 32.7304C135.067 36.1039 137.812 38.8483 141.185 38.8483C144.559 38.8483 147.303 36.1039 147.303 32.7304C147.303 29.357 144.559 26.6125 141.185 26.6125ZM141.185 36.0944C139.33 36.0944 137.821 34.5854 137.821 32.7304C137.821 30.8755 139.33 29.3665 141.185 29.3665C143.04 29.3665 144.549 30.8755 144.549 32.7304C144.549 34.5854 143.04 36.0944 141.185 36.0944Z" fill="#035385"/>
<path d="M155.5 19.0142C150.993 19.0142 147.327 22.6807 147.327 27.1876C147.327 31.6944 150.993 35.361 155.5 35.361C160.007 35.361 163.673 31.6944 163.673 27.1876C163.673 22.6808 160.007 19.0142 155.5 19.0142ZM155.5 32.6071C152.512 32.6071 150.081 30.1759 150.081 27.1876C150.081 24.1993 152.512 21.7681 155.5 21.7681C158.488 21.7681 160.92 24.1992 160.92 27.1876C160.92 30.1759 158.488 32.6071 155.5 32.6071Z" fill="#035385"/>
<path d="M169.815 26.6125C166.441 26.6125 163.697 29.357 163.697 32.7304C163.697 36.1039 166.441 38.8483 169.815 38.8483C173.188 38.8483 175.933 36.1039 175.933 32.7304C175.933 29.357 173.188 26.6125 169.815 26.6125ZM169.815 36.0944C167.96 36.0944 166.451 34.5854 166.451 32.7304C166.451 30.8755 167.96 29.3665 169.815 29.3665C171.67 29.3665 173.179 30.8755 173.179 32.7304C173.179 34.5854 171.67 36.0944 169.815 36.0944Z" fill="#035385"/>
<path d="M177.92 182.265L174.777 173.05C174.563 172.423 173.962 172 173.286 172H138.714C138.038 172 137.437 172.423 137.223 173.05L134.08 182.265C134.032 182.408 134.005 182.558 134 182.709C134 182.724 134 182.735 134 182.75V184.286C134.006 186.692 135.17 188.955 137.143 190.395C137.143 190.407 137.143 190.416 137.143 190.429V210.393C137.143 212.937 139.253 215 141.857 215H170.143C172.746 215 174.857 212.937 174.857 210.393V190.429C174.857 190.416 174.857 190.407 174.857 190.395C176.83 188.955 177.994 186.692 178 184.286V182.75C178 182.735 178 182.724 178 182.709C177.995 182.558 177.968 182.408 177.92 182.265ZM167 175.071H172.153L174.249 181.214H167V175.071ZM157.571 175.071H163.857V181.214H157.571V175.071ZM148.143 175.071H154.429V181.214H148.143V175.071ZM139.847 175.071H145V181.214H137.751L139.847 175.071ZM159.143 211.929H152.857V199.643H159.143V211.929ZM171.714 210.393C171.714 211.241 171.011 211.929 170.143 211.929H162.286V198.107C162.286 197.259 161.582 196.571 160.714 196.571H151.286C150.418 196.571 149.714 197.259 149.714 198.107V211.929H141.857C140.989 211.929 140.286 211.241 140.286 210.393V191.811C142.491 192.253 144.784 191.739 146.571 190.401C149.377 192.414 153.195 192.414 156 190.401C158.805 192.414 162.623 192.414 165.429 190.401C167.216 191.739 169.509 192.253 171.714 191.811V210.393ZM170.143 188.893C168.784 188.892 167.493 188.309 166.612 187.299C166.041 186.66 165.048 186.595 164.395 187.153C164.341 187.198 164.292 187.247 164.245 187.299C162.498 189.205 159.501 189.365 157.551 187.658C157.422 187.545 157.299 187.425 157.183 187.299C156.568 186.66 155.54 186.63 154.886 187.231C154.862 187.253 154.839 187.275 154.817 187.299C153.069 189.205 150.072 189.365 148.122 187.658C147.993 187.545 147.87 187.425 147.755 187.299C147.14 186.66 146.111 186.63 145.458 187.231C145.434 187.253 145.411 187.275 145.388 187.299C144.506 188.309 143.216 188.892 141.857 188.893C139.253 188.893 137.143 186.83 137.143 184.286H174.857C174.857 186.83 172.746 188.893 170.143 188.893Z" fill="#035385"/>
<g clip-path="url(#clip0)">
<path d="M177.592 362.247H173.374V331.863H177.592C178.84 331.863 179.469 330.384 178.591 329.517L167.341 318.409C166.791 317.866 165.894 317.866 165.344 318.409L154.095 329.517C153.216 330.384 153.846 331.863 155.093 331.863H159.312V340.125H149.281C148.504 340.125 147.875 340.741 147.875 341.502V348.386H138.031C137.254 348.386 136.625 349.003 136.625 349.763V362.247H132.406C131.63 362.247 131 362.864 131 363.624C131 364.384 131.63 365.001 132.406 365.001H177.593C178.369 365.001 178.999 364.384 178.999 363.624C178.999 362.863 178.369 362.247 177.592 362.247ZM147.875 362.247H139.437V351.14H147.875V362.247ZM159.312 362.247H150.687V342.878H159.312V362.247ZM170.561 330.486V362.247H162.124V330.486C162.124 329.726 161.495 329.109 160.718 329.109H158.468L166.343 321.334L174.217 329.109H171.968C171.191 329.109 170.561 329.726 170.561 330.486Z" fill="#035385"/>
</g>
<defs>
<clipPath id="clip0">
<rect width="48" height="47" fill="white" transform="translate(131 318)"/>
</clipPath>
</defs>
</svg>
