<svg width="196" height="527" viewBox="0 0 196 527" fill="none" xmlns="http://www.w3.org/2000/svg">
<path d="M194.999 526.5L195 142M78.9996 39L139 39M195 142L180 142C162.326 142 148 127.673 148 110L148 94M195 142L195 90.5L195 71C195 53.3269 180.673 39 163 39L139 39M139 39V39C139 23.536 126.463 11 111 11L105.5 11" stroke="#09B9B9" stroke-width="2"/>
<path d="M183 526L183 281M79.9996 191L118 191M183 281L183 223C183 205.327 168.673 191 151 191L118 191M183 281L163 281C145.326 281 131 266.673 131 249L131 232.5M118 191V191C118 179.954 109.045 171 97.9992 171H93.4996" stroke="#09B9B9" stroke-width="2"/>
<path d="M171 526.5L171 456M79.9998 343L112 343M171 456L171 375C171 357.327 156.673 343 139 343L112 343M171 456L170 456C152.327 456 138 441.673 138 424L138 415.5M112 343L112 341.5C112 329.074 101.926 319 89.4998 319V319" stroke="#09B9B9" stroke-width="2"/>
<circle cx="40" cy="40" r="39" stroke="#09B9B9" stroke-width="2"/>
<circle cx="41" cy="192" r="39" stroke="#09B9B9" stroke-width="2"/>
<circle cx="41" cy="344" r="39" stroke="#09B9B9" stroke-width="2"/>
<circle r="2" transform="matrix(-1 0 0 1 148 93)" fill="#09B9B9"/>
<circle r="2" transform="matrix(-1 0 0 1 104 11)" fill="#09B9B9"/>
<circle r="2" transform="matrix(-1 0 0 1 131 231)" fill="#09B9B9"/>
<circle r="2" transform="matrix(-1 0 0 1 138 414)" fill="#09B9B9"/>
<circle r="2" transform="matrix(-1 0 0 1 88 319)" fill="#09B9B9"/>
<circle r="2" transform="matrix(-1 0 0 1 92 171)" fill="#09B9B9"/>
<path d="M19.034 356.496C21.3007 360.422 27.8086 359.729 32.2262 358.624C33.4657 363 36.1256 369.09 40.6771 369.09C45.2285 369.09 47.8885 363.001 49.128 358.624C53.5358 359.727 60.0589 360.413 62.3201 356.496C64.5886 352.567 60.7141 347.26 57.5593 344.001C60.7192 340.736 64.5873 335.432 62.3201 331.505C60.0536 327.579 53.5277 328.276 49.128 329.378C47.8886 325.001 45.2285 318.911 40.6771 318.911C36.1256 318.911 33.4657 325.001 32.2262 329.378C27.8279 328.277 21.3009 327.578 19.034 331.505C16.7655 335.434 20.6399 340.742 23.7948 344.001C20.6349 347.265 16.7669 352.57 19.034 356.496V356.496ZM21.5803 355.026C20.1964 352.629 23.975 348.041 25.9154 346.036C27.3462 347.318 28.9353 348.578 30.6481 349.79C30.8401 351.878 31.136 353.886 31.5287 355.768C28.8302 356.444 22.9646 357.424 21.5803 355.026V355.026ZM37.0019 337.635C38.2254 336.929 39.4545 336.274 40.6771 335.675C41.8997 336.274 43.1288 336.929 44.3523 337.635C45.576 338.341 46.7573 339.079 47.8875 339.838C47.9797 341.197 48.0275 342.589 48.0275 344.001C48.0275 345.413 47.9797 346.804 47.8875 348.163C46.7573 348.922 45.576 349.66 44.3523 350.366C43.1288 351.073 41.8997 351.727 40.6771 352.326C39.4545 351.727 38.2254 351.073 37.0019 350.366C35.7782 349.66 34.5968 348.922 33.4666 348.163C33.3744 346.804 33.3267 345.413 33.3267 344.001C33.3267 342.589 33.3744 341.197 33.4666 339.838C34.5968 339.079 35.7782 338.342 37.0019 337.635V337.635ZM33.8456 336.097C33.9881 335.053 34.1592 334.039 34.3577 333.062C35.3039 333.377 36.2687 333.735 37.2457 334.134C36.6735 334.442 36.1018 334.76 35.5318 335.089C34.961 335.418 34.399 335.755 33.8456 336.097ZM44.1084 334.134C45.0854 333.736 46.0502 333.377 46.9964 333.062C47.195 334.039 47.366 335.053 47.5085 336.097C46.9552 335.755 46.3931 335.418 45.8223 335.089C45.2523 334.76 44.6806 334.442 44.1084 334.134V334.134ZM50.9377 342.039C51.7699 342.685 52.5612 343.34 53.3064 344.001C52.5612 344.661 51.7699 345.317 50.9377 345.962C50.9572 345.313 50.9676 344.659 50.9676 344.001C50.9676 343.343 50.9572 342.688 50.9377 342.039ZM47.5085 351.904C47.3659 352.948 47.1949 353.962 46.9964 354.94C46.0502 354.624 45.0854 354.266 44.1084 353.867C44.6807 353.56 45.2523 353.242 45.8223 352.913C46.3931 352.583 46.9552 352.246 47.5085 351.904V351.904ZM37.2457 353.867C36.2687 354.266 35.3039 354.624 34.3577 354.94C34.1591 353.962 33.9881 352.948 33.8456 351.904C34.399 352.246 34.961 352.583 35.5318 352.912C36.1018 353.242 36.6736 353.56 37.2457 353.867V353.867ZM30.4164 345.962C29.5843 345.317 28.793 344.661 28.0477 344.001C28.793 343.34 29.5843 342.685 30.4164 342.039C30.3969 342.688 30.3865 343.343 30.3865 344.001C30.3865 344.659 30.3969 345.313 30.4164 345.962ZM40.6771 366.15C37.8995 366.15 35.8075 360.483 35.0493 357.805C36.878 357.207 38.7678 356.459 40.6771 355.58C42.5863 356.459 44.4761 357.207 46.3048 357.805C45.5491 360.475 43.457 366.15 40.6771 366.15ZM59.774 355.026C58.3895 357.424 52.5236 356.444 49.8256 355.768C50.2183 353.886 50.5141 351.878 50.7061 349.79C52.419 348.578 54.008 347.318 55.4389 346.036C57.3768 348.039 61.1583 352.628 59.774 355.026ZM59.774 332.975C61.1579 335.372 57.3793 339.96 55.4389 341.965C54.008 340.684 52.419 339.423 50.7061 338.212C50.5141 336.123 50.2183 334.116 49.8256 332.233C52.6345 331.53 58.4033 330.601 59.774 332.975ZM40.6771 321.852C43.4546 321.852 45.5467 327.518 46.3048 330.196C44.4761 330.795 42.5863 331.542 40.6771 332.421C38.7678 331.542 36.878 330.795 35.0493 330.196C35.805 327.527 37.8972 321.852 40.6771 321.852V321.852ZM21.5803 332.975C22.9586 330.588 28.7597 331.54 31.5287 332.233C31.136 334.116 30.8401 336.123 30.6481 338.212C28.9353 339.423 27.3462 340.684 25.9154 341.965C23.9772 339.963 20.1959 335.373 21.5803 332.975V332.975Z" fill="#035385"/>
<path d="M40.6773 348.412C43.1091 348.412 45.0875 346.433 45.0875 344.002C45.0875 341.57 43.1091 339.591 40.6773 339.591C38.2455 339.591 36.2671 341.57 36.2671 344.002C36.2671 346.433 38.2455 348.412 40.6773 348.412ZM40.6773 342.531C41.4879 342.531 42.1474 343.191 42.1474 344.002C42.1474 344.812 41.4879 345.472 40.6773 345.472C39.8667 345.472 39.2072 344.812 39.2072 344.002C39.2072 343.191 39.8667 342.531 40.6773 342.531Z" fill="#035385"/>
<g clip-path="url(#clip0)">
<path d="M24.3905 199.887V207.735H29.8709V216H48.7376V210.41C48.7376 205.352 49.8435 200.051 52.1123 194.259H55.0074L57.3083 196.559C57.0552 197.087 56.9132 197.678 56.9132 198.302C56.9132 200.531 58.7268 202.344 60.9561 202.344C63.1853 202.344 64.9989 200.531 64.9989 198.302C64.9989 196.072 63.1853 194.259 60.9561 194.259C60.3327 194.259 59.7419 194.401 59.2141 194.654L56.1238 191.563H53.1974C53.5116 190.685 53.7468 189.785 53.9021 188.867H57.145C57.7013 190.437 59.1992 191.563 60.9561 191.563C63.1853 191.563 64.9989 189.75 64.9989 187.521C64.9989 185.291 63.1853 183.478 60.9561 183.478C59.1992 183.478 57.7013 184.604 57.145 186.173H54.1281C54.1281 185.261 54.0522 184.36 53.9048 183.478H56.1238L59.2141 180.387C59.7419 180.64 60.3327 180.782 60.9561 180.782C63.1853 180.782 64.9989 178.969 64.9989 176.74C64.9989 174.51 63.1853 172.697 60.9561 172.697C58.7268 172.697 56.9132 174.51 56.9132 176.74C56.9132 177.363 57.0552 177.954 57.3083 178.482L55.0074 180.782H53.2111C51.0529 174.662 45.2164 170.085 38.1522 170.001C30.1812 169.908 23.4882 175.543 22.0258 182.864C21.5151 185.42 21.5912 187.949 22.2513 190.39L19.0015 195.983L24.3905 199.887ZM60.9561 196.954C61.6991 196.954 62.3037 197.558 62.3037 198.301C62.3037 199.045 61.6991 199.649 60.9561 199.649C60.213 199.649 59.6084 199.045 59.6084 198.301C59.6084 197.558 60.2129 196.954 60.9561 196.954ZM60.9561 186.173C61.6991 186.173 62.3037 186.777 62.3037 187.52C62.3037 188.264 61.6991 188.868 60.9561 188.868C60.213 188.868 59.6084 188.264 59.6084 187.52C59.6084 186.777 60.2129 186.173 60.9561 186.173ZM60.9561 175.392C61.6991 175.392 62.3037 175.996 62.3037 176.739C62.3037 177.483 61.6991 178.087 60.9561 178.087C60.213 178.087 59.6084 177.483 59.6084 176.739C59.6084 175.996 60.2129 175.392 60.9561 175.392ZM50.3729 191.392C50.3485 191.449 50.325 191.506 50.3009 191.563H41.9959C42.5857 190.779 43.0088 189.863 43.2115 188.867H51.1608C50.9837 189.731 50.7209 190.574 50.3729 191.392ZM40.6519 187.52C40.6519 189.75 38.8382 191.563 36.609 191.563C34.3797 191.563 32.5661 189.75 32.5661 187.52C32.5661 185.291 34.3797 183.478 36.609 183.478C38.8382 183.478 40.6519 185.291 40.6519 187.52ZM51.4329 186.173H43.2115C43.0087 185.177 42.5856 184.261 41.9958 183.478H51.1595C51.3385 184.349 51.4329 185.251 51.4329 186.173ZM24.6688 183.392C25.9223 177.117 31.5788 172.619 38.1203 172.696C43.5492 172.761 48.2287 176.085 50.2983 180.782H36.609C32.8936 180.782 29.8709 183.805 29.8709 187.52C29.8709 191.236 32.8936 194.259 36.609 194.258H49.2277C47.0878 199.992 46.0424 205.301 46.0424 210.41V213.305H32.5661V205.04H27.0858V198.512L22.5562 195.23L25.1685 190.734C25.097 190.361 23.8456 187.513 24.6688 183.392V183.392Z" fill="#035385"/>
<path d="M35.2607 186.173H37.9561V188.868H35.2607V186.173Z" fill="#035385"/>
</g>
<g clip-path="url(#clip1)">
<path d="M57.1004 18.377C57.1004 17.6165 56.4824 17 55.7219 17C48.4361 17 42.1705 21.4504 39.4999 27.7755C36.8293 21.4504 30.5633 17 23.2764 17C22.5159 17 21.8994 17.6165 21.8994 18.377C21.8994 27.6185 29.0591 35.2191 38.123 35.9238V44.9246C38.123 45.6851 38.7395 46.3016 39.4999 46.3016C40.2603 46.3016 40.8769 45.6851 40.8769 44.9246V35.9238C49.9407 35.2191 57.1004 27.6185 57.1004 18.377ZM24.7232 19.8237C31.7574 20.5065 37.3702 26.1194 38.0531 33.1536C31.0194 32.4702 25.4067 26.8574 24.7232 19.8237V19.8237ZM40.9467 33.1537C41.6295 26.1199 47.242 20.5073 54.2766 19.8239C53.593 26.8575 47.9804 32.4702 40.9467 33.1537Z" fill="#035385"/>
<path d="M30.887 44.688C29.1621 42.9632 26.4124 42.9366 24.6534 44.5553V39.0232C24.6534 35.0134 21.3908 31.7483 17.3785 31.7483H17.377C16.6165 31.7483 16 32.3648 16 33.1252V50.8237C16 51.1889 16.1451 51.5391 16.4034 51.7973L24.8492 60.2433V62.6227C24.8492 63.3832 25.4657 63.9997 26.2262 63.9997H36.5503C37.3107 63.9997 37.9272 63.3832 37.9272 62.6227V54.7425C37.9272 52.7987 37.1704 50.9714 35.7962 49.5972L30.887 44.688ZM35.1733 61.2458H27.6031V59.673C27.6031 59.3078 27.458 58.9576 27.1998 58.6994L18.7539 50.2534V34.719C21.3556 35.5541 21.8995 37.9649 21.8995 39.0233V47.8741C21.8995 48.2393 22.0446 48.5894 22.3029 48.8477L28.2024 54.7472C28.7401 55.2848 29.612 55.2849 30.1497 54.7472C30.6874 54.2095 30.6874 53.3376 30.1497 52.7999L26.4625 49.1127C25.778 48.4282 25.7775 47.3204 26.4625 46.6354C27.1474 45.9506 28.2546 45.9503 28.9398 46.6354L33.8489 51.5446C34.7031 52.3986 35.1734 53.5344 35.1734 54.7425V61.2458H35.1733Z" fill="#035385"/>
<path d="M61.6229 31.749H61.6215C57.6092 31.749 54.3466 35.0142 54.3466 39.0239V44.5561C52.5876 42.9373 49.8379 42.9639 48.113 44.6887L43.2038 49.5979C41.8296 50.9721 41.0728 52.7994 41.0728 54.7432V62.6233C41.0728 63.3838 41.6893 64.0003 42.4497 64.0003H52.7737C53.5342 64.0003 54.1507 63.3838 54.1507 62.6233V60.244L62.5965 51.798C62.8548 51.5398 62.9999 51.1896 62.9999 50.8244V33.126C62.9999 32.3654 62.3834 31.749 61.6229 31.749V31.749ZM60.246 50.254L51.8001 58.6999C51.5419 58.9582 51.3968 59.3084 51.3968 59.6735V61.2464H43.8266V54.7431C43.8266 53.535 44.2969 52.3993 45.1511 51.5452L50.0602 46.636C50.7454 45.9509 51.8527 45.9512 52.5375 46.636C53.2225 47.3211 53.222 48.4288 52.5375 49.1133L48.8503 52.8005C48.3127 53.3383 48.3127 54.2101 48.8503 54.7478C49.388 55.2856 50.2599 55.2855 50.7976 54.7478L56.6971 48.8483C56.9554 48.5901 57.1005 48.2399 57.1005 47.8747V39.0239C57.1005 37.9655 57.6444 35.5547 60.2461 34.7197V50.254H60.246Z" fill="#035385"/>
</g>
<defs>
<clipPath id="clip0">
<rect width="46" height="46" fill="white" transform="translate(19 170)"/>
</clipPath>
<clipPath id="clip1">
<rect width="47" height="47" fill="white" transform="translate(16 17)"/>
</clipPath>
</defs>
</svg>
