<svg width="377" height="350" viewBox="0 0 390 395" fill="none" xmlns="http://www.w3.org/2000/svg">
<path d="M372.646 163.353C372.842 163.549 373.158 163.549 373.354 163.353L376.536 160.172C376.731 159.976 376.731 159.66 376.536 159.464C376.34 159.269 376.024 159.269 375.828 159.464L373 162.293L370.172 159.464C369.976 159.269 369.66 159.269 369.464 159.464C369.269 159.66 369.269 159.976 369.464 160.172L372.646 163.353ZM93.4839 2.59206C93.5535 2.32483 93.3932 2.05178 93.126 1.9822L88.7712 0.848258C88.504 0.778674 88.2309 0.938898 88.1613 1.20613C88.0918 1.47336 88.252 1.7464 88.5192 1.81599L92.3901 2.82394L91.3822 6.69486C91.3126 6.96209 91.4728 7.23513 91.7401 7.30472C92.0073 7.3743 92.2803 7.21408 92.3499 6.94685L93.4839 2.59206ZM98.3576 326.158C98.0929 326.236 97.9421 326.514 98.0207 326.779L99.302 331.093C99.3807 331.358 99.659 331.508 99.9237 331.43C100.188 331.351 100.339 331.073 100.261 330.808L99.1217 326.974L102.956 325.835C103.221 325.756 103.372 325.478 103.293 325.213C103.214 324.948 102.936 324.798 102.671 324.876L98.3576 326.158ZM280.747 2.8973C335.644 35.1114 372.5 94.7519 372.5 163H373.5C373.5 94.3827 336.443 34.4211 281.253 2.03483L280.747 2.8973ZM1.5 163C1.5 94.7519 38.3561 35.1114 93.2531 2.8973L92.7469 2.03483C37.5567 34.4211 0.5 94.3827 0.5 163H1.5ZM187 348.5C155.048 348.5 124.984 340.422 98.7382 326.197L98.2618 327.076C124.651 341.378 154.878 349.5 187 349.5V348.5ZM275.262 326.197C249.016 340.422 218.952 348.5 187 348.5V349.5C219.122 349.5 249.349 341.378 275.738 327.076L275.262 326.197Z" fill="white"/>
</svg>
