<?xml version="1.0" encoding="utf-8"?>
<!-- Generator: Adobe Illustrator 24.2.0, SVG Export Plug-In . SVG Version: 6.00 Build 0)  -->
<svg version="1.1" id="Слой_1" xmlns="http://www.w3.org/2000/svg" xmlns:xlink="http://www.w3.org/1999/xlink" x="0px" y="0px"
	 viewBox="0 0 24 24" style="enable-background:new 0 0 24 24;" xml:space="preserve">
<style type="text/css">
	.st0{fill:#035385;}
</style>
<path class="st0" d="M12,0C5.4,0,0,5.4,0,12s5.4,12,12,12s12-5.4,12-12S18.6,0,12,0z M6.5,18.1H3.6V9.3h2.9V18.1z M5.1,8.1L5.1,8.1
	c-1,0-1.6-0.7-1.6-1.5c0-0.9,0.7-1.5,1.7-1.5s1.6,0.7,1.6,1.5C6.7,7.5,6.1,8.1,5.1,8.1z M17.1,18.1h-2.9v-4.7c0-1.2-0.4-2-1.5-2
	c-0.8,0-1.3,0.5-1.5,1.1c-0.1,0.2-0.1,0.5-0.1,0.7v4.9H8.2c0,0,0-8,0-8.8h2.9v1.2C11.5,9.9,12.2,9,13.7,9c1.9,0,3.4,1.3,3.4,4V18.1z
	"/>
</svg>
