<?xml version="1.0" encoding="utf-8"?>
<!-- Generator: Adobe Illustrator 24.2.0, SVG Export Plug-In . SVG Version: 6.00 Build 0)  -->
<svg version="1.1" id="Слой_1" xmlns="http://www.w3.org/2000/svg" xmlns:xlink="http://www.w3.org/1999/xlink" x="0px" y="0px"
	 viewBox="0 0 149 46" style="enable-background:new 0 0 149 46;" xml:space="preserve">
<style type="text/css">
	.st0{fill:#035385;}
</style>
<path class="st0" d="M13.5,40.7c0-3.1,2.3-5.3,5.3-5.3c1.8,0,3.1,0.9,3.9,2l-1.1,0.6c-0.6-0.9-1.6-1.5-2.8-1.5c-2.2,0-4,1.7-4,4.1
	c0,2.4,1.7,4.1,4,4.1c1.2,0,2.2-0.6,2.8-1.5l1.1,0.6c-0.9,1.2-2.1,2-3.9,2C15.8,46,13.5,43.9,13.5,40.7z"/>
<path class="st0" d="M38.9,37l-2.2,5.5H41L38.9,37z M42.3,45.8l-0.9-2.3h-5.1l-0.9,2.3H34l4.1-10.2h1.6l4.1,10.2H42.3z"/>
<path class="st0" d="M61.9,38.7c0-1.1-0.8-1.9-2-1.9h-2.7v3.9h2.7C61.1,40.7,61.9,39.9,61.9,38.7z M55.9,45.8V35.6H60
	c2.1,0,3.2,1.4,3.2,3.1c0,1.7-1.2,3.1-3.2,3.1h-2.8v4H55.9z"/>
<path class="st0" d="M75.7,35.6h1.3v10.2h-1.3V35.6z"/>
<path class="st0" d="M92.6,45.8v-9h-3.2v-1.1h7.8v1.1h-3.3v9H92.6z"/>
<path class="st0" d="M112.4,37l-2.2,5.5h4.3L112.4,37z M115.9,45.8l-0.9-2.3h-5.1l-0.9,2.3h-1.5l4.1-10.2h1.6l4.1,10.2H115.9z"/>
<path class="st0" d="M129.4,45.8V35.6h1.3v9h4.8v1.1H129.4z"/>
<path class="st0" d="M91.6,21.1h4.5V0h-4.5V21.1z"/>
<path class="st0" d="M0,21.1h4.5v-8.8H0V21.1z"/>
<path class="st0" d="M14.5,13.3L4.7,0H0v1.2l4.5,6.1v0l10.2,13.8h4.4V0h-4.5V13.3z"/>
<path class="st0" d="M57.9,21.1h4.5v-8.8h-4.5V21.1z"/>
<path class="st0" d="M69.4,12.8L64.3,0h-4.4L66,15.1l2.4,6h2l6-14.8v14.8H81V0h-6.4L69.4,12.8z"/>
<path class="st0" d="M36.8,0l5,13.6h-6.6h-4.8l-2.9,7.5h5.2l1.3-3.6h9.1l1.3,3.6h5.2L41.3,0H36.8z"/>
<path class="st0" d="M111.3,12.4h10.3v-4h-10.3v0h-4.5v12.7h15.1v-4h-10.5V12.4z"/>
<path class="st0" d="M106.7,4h11.8v0h3.3V0h-15.1V4z"/>
<path class="st0" d="M144.2,13.1c2.3-0.5,4.7-2.5,4.7-6.3c0-3.9-2.7-6.8-7.2-6.8h-10v4h4.5h1.5h3.2c1.8,0,3.2,1.1,3.2,2.9
	c0,1.8-1.4,2.9-3.2,2.9h-3.2h-1.5h-4.5v11.5h4.5v-7.5h3.3l4.2,7.5h5.2L144.2,13.1z"/>
</svg>
